<?xml version="1.0" encoding="UTF-8"?>
<svg width="24px" height="24px" viewBox="0 0 24 24" version="1.1" xmlns="http://www.w3.org/2000/svg" xmlns:xlink="http://www.w3.org/1999/xlink">
    <!-- Generator: Sketch 59 (86127) - https://sketch.com -->
    <title>icon-停顿</title>
    <desc>Created with Sketch.</desc>
    <g id="4月-企业端" stroke="none" stroke-width="1" fill="none" fill-rule="evenodd">
        <g id="场景设置-讲解内容" transform="translate(-584.000000, -834.000000)" fill="#5D7092" fill-rule="nonzero">
            <path d="M598.269206,834.012418 L600.830346,834.373134 L603.757362,834.373134 C606.318502,834.553492 608.147887,836.717785 607.964949,839.242793 L607.964949,839.242793 L607.964949,853.130341 C608.147887,854.392845 607.599072,855.835707 606.684379,856.737496 L606.684379,856.737496 L606.50144,856.917853 L606.318502,857.098211 C605.403809,857.639284 604.489116,858 603.391485,858 L603.391485,858 L598.269206,858 C597.72039,858 597.171575,857.458927 597.171575,856.917853 L597.171575,856.917853 L597.171575,835.094565 C597.171575,834.553492 597.72039,834.012418 598.269206,834.012418 L598.269206,834.012418 Z M584,838.160647 C584.182939,835.635638 586.378201,833.832061 588.939341,834.012418 L588.939341,834.012418 L593.512804,834.012418 C594.06162,834.012418 594.427497,834.553492 594.793374,835.094565 L594.793374,835.094565 L594.793374,856.557138 C594.793374,857.098211 594.244558,857.639284 593.695743,857.639284 L593.695743,857.639284 L588.573463,857.639284 C587.475832,857.819642 586.56114,857.458927 585.646447,856.737496 L585.646447,856.737496 L585.463508,856.557138 L585.28057,856.37678 C584.365877,855.474991 584,854.032129 584,852.769625 L584,852.769625 Z M589.122279,850.424974 C588.573464,850.424974 588.024648,850.966047 588.024648,851.507121 L588.024648,851.507121 L588.024648,852.949983 C588.024648,853.491056 588.573464,853.851772 589.122279,853.851772 C589.671095,853.851772 590.21991,853.310698 590.21991,852.769625 L590.21991,852.769625 L590.21991,851.326763 C590.036972,850.78569 589.671095,850.424974 589.122279,850.424974 Z M602.659731,838.341004 C602.110915,838.341004 601.5621,838.882078 601.5621,839.423151 L601.5621,839.423151 L601.5621,840.866013 C601.5621,841.407086 602.110915,841.767802 602.659731,841.767802 C603.208547,841.767802 603.757362,841.226729 603.757362,840.685655 L603.757362,840.685655 L603.757362,839.242793 C603.574424,838.70172 603.208547,838.341004 602.659731,838.341004 Z" id="icon-停顿"></path>
        </g>
    </g>
</svg>