<?xml version="1.0" encoding="UTF-8"?>
<svg width="24px" height="24px" viewBox="0 0 24 24" version="1.1" xmlns="http://www.w3.org/2000/svg" xmlns:xlink="http://www.w3.org/1999/xlink">
    <!-- Generator: Sketch 59 (86127) - https://sketch.com -->
    <title>icon-语速</title>
    <desc>Created with Sketch.</desc>
    <g id="4月-企业端" stroke="none" stroke-width="1" fill="none" fill-rule="evenodd">
        <g id="场景设置-讲解内容" transform="translate(-503.000000, -834.000000)" fill="#5D7092" fill-rule="nonzero">
            <path d="M515,834 C521.627417,834 527,839.372583 527,846 C527,850.287187 524.712813,854.248711 521,856.392305 C517.287187,858.535898 512.712813,858.535898 509,856.392305 C505.287187,854.248711 503,850.287187 503,846 C503,839.372583 508.372583,834 515,834 Z M515,837.600268 C510.195013,837.600268 506.300027,841.495446 506.300027,846.300268 C506.300027,848.717678 507.28671,850.905536 508.877737,852.481607 C509.113147,852.714911 509.493074,852.713036 509.726338,852.477589 C509.76897,852.434732 509.803825,852.386786 509.830637,852.335893 L509.830637,852.335893 L510.74037,851.555893 C510.992135,851.34 511.021092,850.96125 510.805523,850.709732 C510.589954,850.458214 510.2111,850.429018 509.959603,850.644643 L509.959603,850.644643 L509.317455,851.195089 C508.449549,850.188482 507.844937,848.949643 507.609527,847.584107 L507.609527,847.584107 L508.585218,847.580625 C508.916615,847.579553 509.184199,847.309821 509.183126,846.978482 C509.181786,846.647143 508.912325,846.379553 508.580928,846.380625 L508.580928,846.380625 L507.50067,846.384375 L507.500134,846.3 C507.500134,844.629375 508.046295,843.08625 508.969971,841.839643 L508.969971,841.839643 L509.80168,842.409107 C510.075163,842.596339 510.448655,842.526429 510.635803,842.252946 C510.822951,841.979464 510.75324,841.606071 510.479757,841.418839 L510.479757,841.418839 L509.764411,840.929196 C510.999374,839.725179 512.648047,838.943571 514.477165,838.817679 L514.477165,838.817679 L514.489767,839.889643 C514.493789,840.220982 514.765395,840.486429 515.096791,840.482679 C515.42792,840.478929 515.69336,840.207054 515.689606,839.875714 L515.689606,839.875714 L515.67754,838.83 C517.432389,838.987232 519.013495,839.749018 520.210385,840.905625 L520.210385,840.905625 L519.46072,841.419107 C519.187506,841.606339 519.117526,841.979732 519.304674,842.253214 C519.49209,842.526696 519.865314,842.596607 520.138797,842.409375 L520.138797,842.409375 L521.00992,841.812857 C521.945661,843.064018 522.499866,844.617321 522.499866,846.3 L522.499866,846.3 L522.49933,846.383571 L521.60193,846.380357 C521.270534,846.379286 521.000804,846.646875 520.999732,846.978214 C520.998659,847.309553 521.266244,847.579286 521.597641,847.580357 L521.597641,847.580357 L522.390473,847.583303 C522.149432,848.982589 521.52069,850.24875 520.618196,851.268482 L520.618196,851.268482 L519.890249,850.644643 C519.638752,850.429018 519.259898,850.458214 519.044329,850.709732 C518.82876,850.961518 518.857986,851.340268 519.109483,851.555893 L519.109483,851.555893 L520.159442,852.455893 C520.237197,852.522589 520.326749,852.565714 520.420055,852.586339 C520.645813,852.705268 520.931361,852.670714 521.122263,852.481607 C522.71329,850.905536 523.699973,848.717678 523.699973,846.300268 C523.699973,841.495446 519.804987,837.600268 515,837.600268 Z M518.528285,844.210966 L518.46358,844.219018 L514.423541,845.146607 L514.399946,845.151964 L514.250574,845.193709 C513.467004,845.446935 512.90008,846.182269 512.90008,847.05 C512.90008,848.127053 513.773081,849 514.850121,849 C515.540531,849 516.147019,848.641339 516.493431,848.1 L516.493431,848.1 L518.780231,844.678125 L518.810764,844.620496 C518.896926,844.405768 518.706162,844.163281 518.46358,844.219018 Z" id="icon-语速"></path>
        </g>
    </g>
</svg>