<?xml version="1.0" encoding="UTF-8"?>
<svg width="24px" height="24px" viewBox="0 0 24 24" version="1.1" xmlns="http://www.w3.org/2000/svg" xmlns:xlink="http://www.w3.org/1999/xlink">
    <!-- Generator: Sketch 59 (86127) - https://sketch.com -->
    <title>icon-视频</title>
    <desc>Created with Sketch.</desc>
    <g id="4月-企业端" stroke="none" stroke-width="1" fill="none" fill-rule="evenodd">
        <g id="场景设置-讲解内容" transform="translate(-422.000000, -834.000000)" fill="#5D7092" fill-rule="nonzero">
            <path d="M441.419429,834.000014 L426.573714,834.000014 C425.36,834.000014 424.194286,834.471457 423.337143,835.311456 C422.48,836.151455 422,837.291454 422,838.479452 L422,850.261724 C422,852.735435 424.046857,854.571433 426.580571,854.571433 L441.426286,854.571433 C443.953143,854.571433 446,852.690864 446,850.208581 L446,838.486309 C446,837.296596 445.52,836.154883 444.659429,835.31317 C443.792819,834.468427 442.629634,833.996999 441.419429,834.000014 Z M438.577143,845.669158 L430.725714,849.337725 C430.033143,849.697724 428.857143,848.928011 428.857143,848.055441 L428.857143,840.337736 C428.857143,839.470308 430.022857,838.887452 430.722286,839.254308 L438.481143,843.298303 C439.312571,843.726874 439.384571,844.976587 438.56,845.669158 L438.578857,845.669158 L438.577143,845.669158 Z M423.714286,856.285716 L444.285714,856.285716 L444.285714,858 L423.714286,858 L423.714286,856.285716 Z" id="icon-视频"></path>
        </g>
    </g>
</svg>