<?xml version="1.0" encoding="UTF-8"?>
<svg width="24px" height="24px" viewBox="0 0 24 24" version="1.1" xmlns="http://www.w3.org/2000/svg" xmlns:xlink="http://www.w3.org/1999/xlink">
    <!-- Generator: Sketch 59 (86127) - https://sketch.com -->
    <title>icon-代写</title>
    <desc>Created with Sketch.</desc>
    <g id="4月-企业端" stroke="none" stroke-width="1" fill="none" fill-rule="evenodd">
        <g id="场景设置-讲解内容" transform="translate(-260.000000, -834.000000)" fill="#5D7092" fill-rule="nonzero">
            <path d="M281.3336,858 L262.6664,858 C261.2,858 260,856.8 260,855.3336 L260,836.6664 C260,835.2 261.2,834 262.6664,834 L281.3336,834 C282.8,834 284,835.2 284,836.6664 L284,855.3336 C284,856.8 282.8,858 281.3336,858 Z M275.7896,852.324 L271.1798,840.222 L269.5076,840.222 L264.8984,852.324 L266.6252,852.324 L267.7892,849.012 L272.8286,849.012 L274.0622,852.324 L275.789,852.324 L275.7896,852.324 Z M277.3358,852.324 L278.8676,852.324 L278.8676,843.6834 L277.3358,843.6834 L277.3358,852.324 L277.3358,852.324 Z M277.1558,840.6366 C277.1558,840.9072 277.2476,841.1328 277.43,841.3128 C277.6118,841.4922 277.8416,841.5822 278.1176,841.5822 C278.3936,841.5822 278.6258,841.4922 278.8166,841.3122 C279.0068,841.1322 279.1016,840.9072 279.1016,840.6366 C279.1016,840.3606 279.0068,840.1314 278.8166,839.9496 C278.629636,839.768481 278.377836,839.669923 278.1176,839.676 C277.8464,839.676 277.6184,839.7678 277.4336,839.9532 C277.250533,840.133065 277.149989,840.380624 277.1558,840.6372 L277.1558,840.6366 Z M272.3438,847.6446 L268.2812,847.6446 L270.0932,842.613 C270.1664,842.415 270.2312,842.1336 270.2888,841.7694 L270.3284,841.7694 C270.3956,842.1708 270.4586,842.4516 270.5156,842.613 L272.3438,847.6446 Z" id="icon-代写"></path>
        </g>
    </g>
</svg>