<?xml version="1.0" encoding="UTF-8"?>
<svg width="14px" height="14px" viewBox="0 0 14 14" version="1.1" xmlns="http://www.w3.org/2000/svg" xmlns:xlink="http://www.w3.org/1999/xlink">
    <!-- Generator: Sketch 59 (86127) - https://sketch.com -->
    <title>icon-管理</title>
    <desc>Created with Sketch.</desc>
    <g id="页面-2" stroke="none" stroke-width="1" fill="none" fill-rule="evenodd">
        <g id="我的AI" transform="translate(-504.000000, -432.000000)" fill="#5D7092" fill-rule="nonzero">
            <path d="M508.846154,439.538462 C509.738306,439.538462 510.461538,440.261694 510.461538,441.153846 L510.461538,441.153846 L510.461538,444.384615 C510.461538,445.276768 509.738306,446 508.846154,446 L508.846154,446 L505.615385,446 C504.723232,446 504,445.276768 504,444.384615 L504,444.384615 L504,441.153846 C504,440.261694 504.723232,439.538462 505.615385,439.538462 L505.615385,439.538462 Z M516.384615,439.538462 C517.276768,439.538462 518,440.261694 518,441.153846 L518,441.153846 L518,444.384615 C518,445.276768 517.276768,446 516.384615,446 L516.384615,446 L513.153846,446 C512.261694,446 511.538462,445.276768 511.538462,444.384615 L511.538462,444.384615 L511.538462,441.153846 C511.538462,440.261694 512.261694,439.538462 513.153846,439.538462 L513.153846,439.538462 Z M508.846154,440.615385 L505.615385,440.615385 C505.318001,440.615385 505.076923,440.856462 505.076923,441.153846 L505.076923,441.153846 L505.076923,444.384615 C505.076923,444.681999 505.318001,444.923077 505.615385,444.923077 L505.615385,444.923077 L508.846154,444.923077 C509.143538,444.923077 509.384615,444.681999 509.384615,444.384615 L509.384615,444.384615 L509.384615,441.153846 C509.384615,440.856462 509.143538,440.615385 508.846154,440.615385 L508.846154,440.615385 Z M516.384615,440.615385 L513.153846,440.615385 C512.856462,440.615385 512.615385,440.856462 512.615385,441.153846 L512.615385,441.153846 L512.615385,444.384615 C512.615385,444.681999 512.856462,444.923077 513.153846,444.923077 L513.153846,444.923077 L516.384615,444.923077 C516.681999,444.923077 516.923077,444.681999 516.923077,444.384615 L516.923077,444.384615 L516.923077,441.153846 C516.923077,440.856462 516.681999,440.615385 516.384615,440.615385 L516.384615,440.615385 Z M508.846154,432 C509.738306,432 510.461538,432.723232 510.461538,433.615385 L510.461538,433.615385 L510.461538,436.846154 C510.461538,437.738306 509.738306,438.461538 508.846154,438.461538 L508.846154,438.461538 L505.615385,438.461538 C504.723232,438.461538 504,437.738306 504,436.846154 L504,436.846154 L504,433.615385 C504,432.723232 504.723232,432 505.615385,432 L505.615385,432 Z M514.769231,432 C516.553535,432 518,433.446465 518,435.230769 C518,437.015074 516.553535,438.461538 514.769231,438.461538 C512.984926,438.461538 511.538462,437.015074 511.538462,435.230769 C511.538462,433.446465 512.984926,432 514.769231,432 Z M508.846154,433.076923 L505.615385,433.076923 C505.318001,433.076923 505.076923,433.318001 505.076923,433.615385 L505.076923,433.615385 L505.076923,436.846154 C505.076923,437.143538 505.318001,437.384615 505.615385,437.384615 L505.615385,437.384615 L508.846154,437.384615 C509.143538,437.384615 509.384615,437.143538 509.384615,436.846154 L509.384615,436.846154 L509.384615,433.615385 C509.384615,433.318001 509.143538,433.076923 508.846154,433.076923 L508.846154,433.076923 Z" id="icon-管理"></path>
        </g>
    </g>
</svg>