<?xml version="1.0" encoding="UTF-8"?>
<svg width="16px" height="16px" viewBox="0 0 16 16" version="1.1" xmlns="http://www.w3.org/2000/svg" xmlns:xlink="http://www.w3.org/1999/xlink">
    <!-- Generator: Sketch 59 (86127) - https://sketch.com -->
    <title>icon-复制</title>
    <desc>Created with Sketch.</desc>
    <g id="页面-2" stroke="none" stroke-width="1" fill="none" fill-rule="evenodd">
        <g id="我的AI-部署" transform="translate(-1348.000000, -532.000000)" fill="#1D64F3" fill-rule="nonzero">
            <path d="M1359.69231,535.692308 C1360.03218,535.692308 1360.30769,535.967825 1360.30769,536.307692 L1360.30769,536.307692 L1360.30769,547.384615 C1360.30769,547.724483 1360.03218,548 1359.69231,548 L1359.69231,548 L1348.61538,548 C1348.27552,548 1348,547.724483 1348,547.384615 L1348,547.384615 L1348,536.307692 C1348,535.967825 1348.27552,535.692308 1348.61538,535.692308 L1348.61538,535.692308 Z M1359.07692,536.923077 L1349.23077,536.923077 L1349.23077,546.769231 L1359.07692,546.769231 L1359.07692,536.923077 Z M1363.38462,532 C1363.72448,532 1364,532.275517 1364,532.615385 L1364,532.615385 L1364,544.923077 C1364,545.262944 1363.72448,545.538462 1363.38462,545.538462 L1363.38462,545.538462 L1361.53846,545.538462 L1361.53846,544.307692 L1362.76923,544.307692 L1362.76923,533.230769 L1352.92308,533.230769 L1352.92308,534.461538 L1351.69231,534.461538 L1351.69231,532.615385 C1351.69231,532.275517 1351.96782,532 1352.30769,532 L1352.30769,532 Z M1356,543.076923 C1356.37296,543.076923 1356.57639,543.246451 1356.6103,543.585505 L1356.61538,543.692308 C1356.61538,544.102564 1356.41026,544.307692 1356,544.307692 L1352.30769,544.307692 C1351.93473,544.307692 1351.7313,544.138165 1351.69739,543.79911 L1351.69231,543.692308 C1351.69231,543.282051 1351.89744,543.076923 1352.30769,543.076923 L1356,543.076923 Z M1356,539.384615 C1356.37296,539.384615 1356.57639,539.554143 1356.6103,539.893198 L1356.61538,540 C1356.61538,540.410256 1356.41026,540.615385 1356,540.615385 L1352.30769,540.615385 C1351.93473,540.615385 1351.7313,540.445857 1351.69739,540.106802 L1351.69231,540 C1351.69231,539.589744 1351.89744,539.384615 1352.30769,539.384615 L1356,539.384615 Z" id="icon-复制"></path>
        </g>
    </g>
</svg>