<?xml version="1.0" encoding="UTF-8"?>
<svg width="16px" height="16px" viewBox="0 0 16 16" version="1.1" xmlns="http://www.w3.org/2000/svg" xmlns:xlink="http://www.w3.org/1999/xlink">
    <!-- Generator: Sketch 59 (86127) - https://sketch.com -->
    <title>icon-删除</title>
    <desc>Created with Sketch.</desc>
    <g id="页面-2" stroke="none" stroke-width="1" fill="none" fill-rule="evenodd">
        <g id="我的AI-部署" transform="translate(-1384.000000, -532.000000)" fill="#1D64F3" fill-rule="nonzero">
            <path d="M1386.85967,537.135727 C1387.17604,537.135727 1387.43098,537.39067 1387.43098,537.707045 L1387.43098,546.286043 C1387.43098,546.602419 1387.689,546.857362 1388.0023,546.857362 L1396.00384,546.857362 C1396.32022,546.857362 1396.57516,546.602419 1396.57516,546.286043 L1396.57516,537.728547 C1396.57516,537.412171 1396.8301,537.157228 1397.14648,537.157228 C1397.46285,537.157228 1397.7178,537.412171 1397.7178,537.728547 L1397.7178,546.286043 C1397.71472,547.229027 1396.94682,548 1396.00077,548 L1388.0023,548 C1387.05625,548 1386.28835,547.232098 1386.28835,546.286043 L1386.28835,537.707045 C1386.28835,537.39067 1386.54329,537.135727 1386.85967,537.135727 Z M1393.71242,537.14187 C1394.0288,537.14187 1394.28374,537.396813 1394.28374,537.713189 L1394.28374,543.997696 C1394.28374,544.314072 1394.0288,544.572087 1393.71242,544.572087 C1393.39605,544.572087 1393.1411,544.317143 1393.1411,544.000768 L1393.1411,537.713189 C1393.1411,537.396813 1393.39605,537.14187 1393.71242,537.14187 Z M1390.28451,537.14187 C1390.60088,537.14187 1390.85583,537.396813 1390.85583,537.713189 L1390.85583,543.997696 C1390.85583,544.314072 1390.60088,544.572087 1390.28451,544.572087 C1389.96813,544.572087 1389.71319,544.317143 1389.71319,544.000768 L1389.71319,537.713189 C1389.71319,537.396813 1389.96813,537.14187 1390.28451,537.14187 Z M1394.87042,532 C1395.81033,532 1396.57209,532.767902 1396.57209,533.713957 L1396.57209,533.713957 L1396.57209,534.856594 L1399.42868,534.856594 C1399.74506,534.856594 1400,535.111538 1400,535.427913 C1400,535.744289 1399.74506,535.999232 1399.42868,535.999232 L1399.42868,535.999232 L1384.57132,535.999232 C1384.25494,535.999232 1384,535.744289 1384,535.427913 C1384,535.111538 1384.25494,534.856594 1384.57132,534.856594 L1384.57132,534.856594 L1387.42791,534.856594 L1387.42791,533.713957 C1387.42791,532.767902 1388.19581,532 1389.14187,532 L1389.14187,532 Z M1394.87042,533.142638 L1389.14187,533.142638 C1388.82857,533.142638 1388.57055,533.400653 1388.57055,533.713957 L1388.57055,533.713957 L1388.57055,534.856594 L1395.42945,534.856594 L1395.42945,533.713957 C1395.42945,533.394509 1395.18372,533.142638 1394.87042,533.142638 L1394.87042,533.142638 Z" id="icon-删除"></path>
        </g>
    </g>
</svg>