<?xml version="1.0" encoding="UTF-8"?>
<svg width="16px" height="16px" viewBox="0 0 16 16" version="1.1" xmlns="http://www.w3.org/2000/svg" xmlns:xlink="http://www.w3.org/1999/xlink">
    <!-- Generator: Sketch 59 (86127) - https://sketch.com -->
    <title>icon-删除</title>
    <desc>Created with Sketch.</desc>
    <g id="页面-1" stroke="none" stroke-width="1" fill="none" fill-rule="evenodd">
        <g id="知识库" transform="translate(-607.000000, -301.000000)" fill="#5D7092" fill-rule="nonzero">
            <path d="M609.859666,306.135727 C610.176041,306.135727 610.430985,306.39067 610.430985,306.707045 L610.430985,315.286043 C610.430985,315.602419 610.689,315.857362 611.002304,315.857362 L619.00384,315.857362 C619.320215,315.857362 619.575158,315.602419 619.575158,315.286043 L619.575158,306.728547 C619.575158,306.412171 619.830102,306.157228 620.146477,306.157228 C620.462853,306.157228 620.717796,306.412171 620.717796,306.728547 L620.717796,315.286043 C620.714725,316.229027 619.946823,317 619.000768,317 L611.002304,317 C610.056249,317 609.288347,316.232098 609.288347,315.286043 L609.288347,306.707045 C609.288347,306.39067 609.54329,306.135727 609.859666,306.135727 Z M616.712421,306.14187 C617.028796,306.14187 617.28374,306.396813 617.28374,306.713189 L617.28374,312.997696 C617.28374,313.314072 617.028796,313.572087 616.712421,313.572087 C616.396045,313.572087 616.141102,313.317143 616.141102,313.000768 L616.141102,306.713189 C616.141102,306.396813 616.396045,306.14187 616.712421,306.14187 Z M613.284508,306.14187 C613.600883,306.14187 613.855826,306.396813 613.855826,306.713189 L613.855826,312.997696 C613.855826,313.314072 613.600883,313.572087 613.284508,313.572087 C612.968132,313.572087 612.713189,313.317143 612.713189,313.000768 L612.713189,306.713189 C612.713189,306.396813 612.968132,306.14187 613.284508,306.14187 Z M617.870417,301 C618.810328,301 619.572087,301.767902 619.572087,302.713957 L619.572087,302.713957 L619.572087,303.856594 L622.428681,303.856594 C622.745057,303.856594 623,304.111538 623,304.427913 C623,304.744289 622.745057,304.999232 622.428681,304.999232 L622.428681,304.999232 L607.571319,304.999232 C607.254943,304.999232 607,304.744289 607,304.427913 C607,304.111538 607.254943,303.856594 607.571319,303.856594 L607.571319,303.856594 L610.427913,303.856594 L610.427913,302.713957 C610.427913,301.767902 611.195815,301 612.14187,301 L612.14187,301 Z M617.870417,302.142638 L612.14187,302.142638 C611.828566,302.142638 611.570551,302.400653 611.570551,302.713957 L611.570551,302.713957 L611.570551,303.856594 L618.429449,303.856594 L618.429449,302.713957 C618.429449,302.394509 618.183721,302.142638 617.870417,302.142638 L617.870417,302.142638 Z" id="icon-删除"></path>
        </g>
    </g>
</svg>