<?xml version="1.0" encoding="UTF-8"?>
<svg width="24px" height="24px" viewBox="0 0 24 24" version="1.1" xmlns="http://www.w3.org/2000/svg" xmlns:xlink="http://www.w3.org/1999/xlink">
    <!-- Generator: Sketch 59 (86127) - https://sketch.com -->
    <title>删除</title>
    <desc>Created with Sketch.</desc>
    <defs>
        <rect id="path-1" x="0" y="0" width="24" height="24"></rect>
    </defs>
    <g id="4月-企业端" stroke="none" stroke-width="1" fill="none" fill-rule="evenodd">
        <g id="创建AI-选择横版背景图片-自定义" transform="translate(-1855.000000, -170.000000)">
            <g id="删除" transform="translate(1867.000000, 182.000000) scale(1, -1) translate(-1867.000000, -182.000000) translate(1855.000000, 170.000000)">
                <mask id="mask-2" fill="white">
                    <use xlink:href="#path-1"></use>
                </mask>
                <g id="矩形"></g>
                <rect id="矩形" fill="#1D64F3" mask="url(#mask-2)" x="0" y="0" width="36" height="36" rx="18"></rect>
                <path d="M10.1447495,11.851795 C10.3820311,11.851795 10.5732386,12.0430025 10.5732386,12.2802841 L10.5732386,18.7145325 C10.5732386,18.9518142 10.7667499,19.1430217 11.0017278,19.1430217 L17.0028797,19.1430217 C17.2401613,19.1430217 17.4313688,18.9518142 17.4313688,18.7145325 L17.4313688,12.2964101 C17.4313688,12.0591284 17.6225763,11.8679209 17.859858,11.8679209 C18.0971396,11.8679209 18.2883471,12.0591284 18.2883471,12.2964101 L18.2883471,18.7145325 C18.2860434,19.42177 17.7101171,20 17.0005759,20 L11.0017278,20 C10.2921866,20 9.71626033,19.4240737 9.71626033,18.7145325 L9.71626033,12.2802841 C9.71626033,12.0430025 9.90746785,11.851795 10.1447495,11.851795 Z M15.2843156,11.8564024 C15.5215973,11.8564024 15.7128048,12.0476099 15.7128048,12.2848915 L15.7128048,16.9982722 C15.7128048,17.2355538 15.5215972,17.4290651 15.2843156,17.4290651 C15.047034,17.4290651 14.8558265,17.2378576 14.8558265,17.0005759 L14.8558265,12.2848915 C14.8558265,12.0476099 15.047034,11.8564024 15.2843156,11.8564024 Z M12.7133807,11.8564024 C12.9506623,11.8564024 13.1418699,12.0476099 13.1418699,12.2848915 L13.1418699,16.9982722 C13.1418699,17.2355538 12.9506623,17.4290651 12.7133807,17.4290651 C12.4760991,17.4290651 12.2848915,17.2378576 12.2848915,17.0005759 L12.2848915,12.2848915 C12.2848915,12.0476099 12.4760991,11.8564024 12.7133807,11.8564024 Z M16.1528125,8 C16.8577462,8 17.4290651,8.57592629 17.4290651,9.28546746 L17.4290651,9.28546746 L17.4290651,10.1424458 L19.5715109,10.1424458 C19.8087925,10.1424458 20,10.3336533 20,10.5709349 C20,10.8082166 19.8087925,10.9994241 19.5715109,10.9994241 L19.5715109,10.9994241 L8.42848916,10.9994241 C8.19120752,10.9994241 8,10.8082166 8,10.5709349 C8,10.3336533 8.19120754,10.1424458 8.42848916,10.1424458 L8.42848916,10.1424458 L10.5709349,10.1424458 L10.5709349,9.28546746 C10.5709349,8.57592629 11.1468612,8 11.8564024,8 L11.8564024,8 Z M16.1528125,8.8569783 L11.8564024,8.8569783 C11.6214245,8.8569783 11.4279132,9.05048955 11.4279132,9.28546746 L11.4279132,9.28546746 L11.4279132,10.1424458 L16.5720868,10.1424458 L16.5720868,9.28546746 C16.5720868,9.04588212 16.3877904,8.8569783 16.1528125,8.8569783 L16.1528125,8.8569783 Z" id="icon-删除" fill="#FFFFFF" fill-rule="nonzero" mask="url(#mask-2)" transform="translate(14.000000, 14.000000) scale(1, -1) translate(-14.000000, -14.000000) "></path>
            </g>
        </g>
    </g>
</svg>