<?xml version="1.0" encoding="UTF-8"?>
<svg width="25px" height="20px" viewBox="0 0 25 20" version="1.1" xmlns="http://www.w3.org/2000/svg" xmlns:xlink="http://www.w3.org/1999/xlink">
    <!-- Generator: Sketch 59 (86127) - https://sketch.com -->
    <title>icon-文件夹</title>
    <desc>Created with Sketch.</desc>
    <g id="页面-1" stroke="none" stroke-width="1" fill="none" fill-rule="evenodd">
        <g id="知识库" transform="translate(-272.000000, -299.000000)" fill="#1D64F3" fill-rule="nonzero">
            <path d="M294.232889,304.422741 C294.597677,304.461613 294.962465,304.558795 295.327254,304.714286 C295.692042,304.869776 296.008832,305.088435 296.277623,305.370262 C296.546415,305.652089 296.748008,306.006803 296.882404,306.434402 C297.016799,306.862002 297.035999,307.377065 296.940002,307.979592 C296.901603,308.135083 296.824806,308.51895 296.709609,309.131195 C296.594413,309.74344 296.460017,310.448008 296.306422,311.244898 C296.152827,312.041788 295.980033,312.862974 295.788039,313.708455 C295.596045,314.553936 295.413651,315.27794 295.240856,315.880466 C295.144859,316.230321 295.005664,316.589893 294.82327,316.959184 C294.640875,317.328474 294.405683,317.663751 294.117692,317.965015 C293.829701,318.266278 293.484113,318.514091 293.080925,318.708455 C292.677738,318.902818 292.197754,319 291.640971,319 L275.686282,319 C275.283095,319 274.865508,318.912536 274.433522,318.737609 C274.001536,318.562682 273.603149,318.314869 273.23836,317.994169 C272.873572,317.673469 272.575982,317.284742 272.345589,316.827988 C272.115196,316.371234 272,315.86103 272,315.297376 L272,302.790087 C272,301.60447 272.31679,300.676385 272.95037,300.005831 C273.583949,299.335277 274.476721,299 275.628684,299 L289.79783,299 C290.220217,299 290.657003,299.082604 291.108189,299.247813 C291.559374,299.413022 291.967361,299.641399 292.332149,299.932945 C292.696938,300.22449 292.994528,300.564626 293.224921,300.953353 C293.455313,301.34208 293.57051,301.759961 293.57051,302.206997 L293.57051,302.527697 L292.072958,302.527697 C291.304982,302.527697 290.407411,302.522838 289.380244,302.51312 C288.353077,302.503401 287.258712,302.498542 286.097149,302.498542 C284.935586,302.498542 283.850821,302.493683 282.842853,302.483965 C281.834885,302.474247 280.966113,302.469388 280.236536,302.469388 L278.911779,302.469388 C278.412595,302.469388 278.023807,302.629738 277.745416,302.950437 C277.467025,303.271137 277.251032,303.693878 277.097437,304.218659 C276.943842,304.782313 276.771047,305.379981 276.579053,306.011662 C276.38706,306.643343 276.214265,307.231293 276.06067,307.77551 C275.868676,308.41691 275.676682,309.038873 275.484688,309.641399 C275.44629,309.79689 275.42709,309.923226 275.42709,310.020408 C275.42709,310.350826 275.537487,310.627794 275.75828,310.851312 C275.979073,311.07483 276.252664,311.186589 276.579053,311.186589 C277.174234,311.186589 277.577422,310.80758 277.788615,310.049563 L279.314966,304.393586 C281.810886,304.413022 284.095613,304.422741 286.169147,304.422741 L294.232889,304.422741 L294.232889,304.422741 Z" id="icon-文件夹"></path>
        </g>
    </g>
</svg>