<?xml version="1.0" encoding="UTF-8"?>
<svg width="16px" height="16px" viewBox="0 0 16 16" version="1.1" xmlns="http://www.w3.org/2000/svg" xmlns:xlink="http://www.w3.org/1999/xlink">
    <!-- Generator: Sketch 59 (86127) - https://sketch.com -->
    <title>修改</title>
    <desc>Created with Sketch.</desc>
    <g id="4月-企业端" stroke="none" stroke-width="1" fill="none" fill-rule="evenodd">
        <g id="创建AI-选择横版背景图片-自定义" transform="translate(-1573.000000, -491.000000)" fill="#1D64F3" fill-rule="nonzero">
            <path d="M1581,491 C1581.53166,491 1581.96472,491.431126 1581.96472,491.964717 C1581.96472,492.498308 1581.53359,492.929435 1581,492.929435 L1575.72402,492.929435 C1575.28516,492.929435 1574.9275,493.287095 1574.9275,493.725955 L1574.9275,504.275979 C1574.9275,504.714838 1575.28516,505.072499 1575.72402,505.072499 L1586.27405,505.072499 C1586.7129,505.072499 1587.07057,504.714838 1587.07057,504.275979 L1587.07057,499 C1587.07057,498.466409 1587.50169,498.035283 1588.03528,498.035283 C1588.56694,498.035283 1589,498.466409 1589,499 L1589,504.274045 C1589,505.778154 1587.77622,507 1586.27598,507 L1575.72402,507 C1574.22185,507 1573,505.778154 1573,504.275979 L1573,493.724021 C1573,492.221846 1574.22185,491 1575.72402,491 L1581,491 Z M1587.72087,491.279143 C1588.09304,491.651334 1588.09304,492.252565 1587.72087,492.624755 L1579.62468,500.721334 C1579.43955,500.906475 1579.19525,501 1578.95286,501 C1578.70856,501 1578.46617,500.906475 1578.27913,500.721334 C1577.90696,500.349143 1577.90696,499.747912 1578.27913,499.375722 L1586.37532,491.279143 C1586.74749,490.906952 1587.3487,490.906952 1587.72087,491.279143 Z" id="修改"></path>
        </g>
    </g>
</svg>