<?xml version="1.0" encoding="UTF-8"?>
<svg width="16px" height="16px" viewBox="0 0 16 16" version="1.1" xmlns="http://www.w3.org/2000/svg" xmlns:xlink="http://www.w3.org/1999/xlink">
    <!-- Generator: Sketch 59 (86127) - https://sketch.com -->
    <title>icon-预览</title>
    <desc>Created with Sketch.</desc>
    <g id="页面-2" stroke="none" stroke-width="1" fill="none" fill-rule="evenodd">
        <g id="我的AI" transform="translate(-411.000000, -431.000000)" fill="#5D7092" fill-rule="nonzero" stroke="#5D7092" stroke-width="0.2">
            <path d="M412.5625,442.078125 C412.873438,442.078125 413.125,442.329687 413.125,442.640625 L413.125,442.640625 L413.125,444.875 L415.359375,444.875 C415.670313,444.875 415.921875,445.126562 415.921875,445.4375 C415.921875,445.748438 415.670313,446 415.359375,446 L415.359375,446 L412.9375,446 C412.420313,446 412,445.579687 412,445.0625 L412,445.0625 L412,442.640625 C412,442.329687 412.251562,442.078125 412.5625,442.078125 Z M425.4375,442.078125 C425.748438,442.078125 426,442.329687 426,442.640625 L426,442.640625 L426,445.0625 C426,445.579687 425.579687,446 425.0625,446 L425.0625,446 L422.640625,446 C422.329687,446 422.078125,445.748438 422.078125,445.4375 C422.078125,445.126562 422.329687,444.875 422.640625,444.875 L422.640625,444.875 L424.875,444.875 L424.875,442.640625 C424.875,442.329687 425.126562,442.078125 425.4375,442.078125 Z M419,435.98125 C420.645312,435.98125 422.146875,436.81875 423.507812,438.492188 C423.748438,438.7875 423.748438,439.210938 423.507812,439.50625 C422.146875,441.18125 420.645312,442.01875 419,442.01875 C417.354688,442.01875 415.853125,441.18125 414.492188,439.507812 C414.251563,439.2125 414.251563,438.789062 414.492188,438.49375 C415.853125,436.81875 417.354688,435.98125 419,435.98125 Z M419,436.954687 C417.725,436.954687 416.5375,437.615625 415.414062,439 C416.5375,440.384375 417.725,441.045313 419,441.045313 C420.275,441.045313 421.4625,440.384375 422.585938,439 C421.460938,437.615625 420.275,436.954687 419,436.954687 Z M419,437.440625 C419.8625,437.440625 420.5625,438.139063 420.5625,439.001562 C420.5625,439.8625 419.8625,440.560938 419,440.560938 C418.442187,440.560938 417.926562,440.264063 417.646875,439.78125 C417.367188,439.298437 417.367188,438.703125 417.646875,438.220312 C417.926562,437.7375 418.442187,437.440625 419,437.440625 Z M419,438.5625 C418.757812,438.5625 418.5625,438.757812 418.5625,439 C418.5625,439.240625 418.757812,439.4375 419,439.4375 C419.242188,439.4375 419.4375,439.242188 419.4375,439 C419.4375,438.759375 419.242188,438.5625 419,438.5625 Z M415.359375,432 C415.670313,432 415.921875,432.251562 415.921875,432.5625 C415.921875,432.873438 415.670313,433.125 415.359375,433.125 L415.359375,433.125 L413.125,433.125 L413.125,435.359375 C413.125,435.670313 412.873438,435.921875 412.5625,435.921875 C412.251562,435.921875 412,435.670313 412,435.359375 L412,435.359375 L412,432.9375 C412,432.420313 412.420313,432 412.9375,432 L412.9375,432 Z M425.0625,432 C425.579687,432 426,432.420313 426,432.9375 L426,432.9375 L426,435.359375 C426,435.670313 425.748438,435.921875 425.4375,435.921875 C425.126562,435.921875 424.875,435.670313 424.875,435.359375 L424.875,435.359375 L424.875,433.125 L422.640625,433.125 C422.329687,433.125 422.078125,432.873438 422.078125,432.5625 C422.078125,432.251562 422.329687,432 422.640625,432 L422.640625,432 Z" id="icon-预览"></path>
        </g>
    </g>
</svg>