<?xml version="1.0" encoding="UTF-8"?>
<svg width="24px" height="24px" viewBox="0 0 24 24" version="1.1" xmlns="http://www.w3.org/2000/svg" xmlns:xlink="http://www.w3.org/1999/xlink">
    <!-- Generator: Sketch 59 (86127) - https://sketch.com -->
    <title>切片</title>
    <desc>Created with Sketch.</desc>
    <g id="4月-企业端" stroke="none" stroke-width="1" fill="none" fill-rule="evenodd">
        <g id="场景设置-关联PPT-弹窗" transform="translate(-793.000000, -395.000000)" fill="#FA5151">
            <g id="icon-失败" transform="translate(793.000000, 395.000000)">
                <g id="3.Icons/Filled/error">
                    <g id="common_icons_info">
                        <path d="M11.9591241,1.99318735 C17.463159,1.99318735 21.9250608,6.45508921 21.9250608,11.9591241 C21.9250608,17.463159 17.463159,21.9250608 11.9591241,21.9250608 C6.45508921,21.9250608 1.99318735,17.463159 1.99318735,11.9591241 C1.99318735,6.45508921 6.45508921,1.99318735 11.9591241,1.99318735 Z M11.9546476,15.286618 C11.457324,15.286618 11.0621902,15.6681265 11.0621902,16.1654501 C11.0621902,16.6627737 11.457324,17.0442822 11.9546476,17.0442822 C12.4655965,17.0442822 12.8539177,16.6627737 12.8539177,16.1654501 C12.8539177,15.6681265 12.4655965,15.286618 11.9546476,15.286618 Z M12.7176646,6.11484185 L11.1984432,6.11484185 L11.3074456,13.6856448 L12.6086622,13.6856448 L12.7176646,6.11484185 Z" id="图标颜色"></path>
                    </g>
                </g>
            </g>
        </g>
    </g>
</svg>