<?xml version="1.0" encoding="UTF-8"?>
<svg width="16px" height="20px" viewBox="0 0 16 20" version="1.1" xmlns="http://www.w3.org/2000/svg" xmlns:xlink="http://www.w3.org/1999/xlink">
    <!-- Generator: Sketch 59 (86127) - https://sketch.com -->
    <title>icon-部署</title>
    <desc>Created with Sketch.</desc>
    <g id="页面-2" stroke="none" stroke-width="1" fill="none" fill-rule="evenodd">
        <g id="我的AI" transform="translate(-320.000000, -429.000000)" fill="#5D7092" fill-rule="nonzero" stroke="#5D7092" stroke-width="0.2">
            <path d="M333.446104,436.909286 C334.340057,436.909286 334.993266,437.684406 335,438.637047 L335,442.089054 C335,445.356508 334.572384,448 330.018441,448 C328.02346,448 327.080685,447.574651 326.255756,446.850503 C326.146327,446.77844 326.043631,446.694073 325.954404,446.595645 L321.444233,441.770921 C320.676544,440.94483 321.028402,439.781271 321.563764,439.203008 C322.099126,438.624744 323.218672,438.529831 323.846627,439.203008 L324.828124,440.257592 L324.828124,433.552192 C324.828124,432.597793 325.552041,431.822674 326.444311,431.822674 C327.33153,431.822674 328.004941,432.597793 328.004941,433.552192 L328.004941,435.294014 C328.232218,435.165706 328.489798,435.090128 328.765896,435.090128 C329.476345,435.090128 330.030226,435.58051 330.244034,436.258959 C330.501613,436.088468 330.801281,435.997071 331.106,435.998828 C331.816449,435.998828 332.370329,436.487452 332.584137,437.167659 C332.829933,437.002441 333.087512,436.907529 333.402332,436.907529 L333.446104,436.909286 Z M334.144768,442.087296 C334.144768,441.356118 334.144768,438.744263 334.158236,438.751294 C334.158236,437.900596 333.4158,437.932233 333.4158,437.932233 C332.994918,437.932233 332.680099,438.301338 332.680099,438.751294 L332.680099,440.551118 L332.673364,440.551118 C332.678415,440.575725 332.678415,440.60912 332.678415,440.640758 C332.678415,440.888585 332.503328,441.090714 332.264267,441.090714 C332.02689,441.090714 331.834968,440.890343 331.836651,440.642515 L331.836651,440.640758 C331.836651,440.614393 331.836651,440.582756 331.841702,440.551118 L331.836651,440.551118 L331.836651,437.912899 C331.836651,437.143052 331.068962,437.092081 331.068962,437.092081 C330.64808,437.092081 330.345045,437.461185 330.345045,437.912899 L330.345045,440.002734 L330.339995,440.002734 C330.345045,440.029099 330.345045,440.060736 330.345045,440.092374 C330.345045,440.340201 330.15649,440.544087 329.917429,440.544087 C329.680052,440.544087 329.48813,440.343716 329.489813,440.095889 L329.489813,440.094131 C329.489813,440.067767 329.489813,440.036129 329.496547,440.004492 L329.491497,440.004492 L329.491497,437.004199 C329.491497,436.171077 328.742327,436.185138 328.742327,436.185138 C328.321445,436.185138 328.013359,436.554243 328.013359,437.004199 L328.013359,439.273313 L328.006625,439.273313 C328.013359,439.299678 328.013359,439.331315 328.013359,439.362953 C328.013359,439.61078 327.824804,439.814667 327.585743,439.814667 C327.348366,439.814667 327.158127,439.612538 327.158127,439.366468 L327.158127,439.36471 C327.158127,439.338346 327.158127,439.306708 327.163178,439.275071 L327.158127,439.275071 L327.158127,433.731472 C327.158127,433.286788 326.86856,432.917684 326.447678,432.917684 C326.026796,432.917684 325.679989,433.279758 325.679989,433.731472 L325.679989,442.444097 C325.679989,442.444097 325.252373,441.98008 324.762467,441.458061 L323.366822,439.964066 C323.065471,439.645933 322.498122,439.659994 322.190036,439.990431 C321.88195,440.320867 321.787673,440.842886 322.164783,441.248901 L326.442628,445.818768 C327.235569,446.664193 328.279357,447.084269 330.021808,447.084269 C334.1313,447.084269 334.144768,444.846792 334.144768,442.087296 Z M324.193434,436.120105 C323.516656,435.445171 323.134495,434.510106 323.13784,433.532858 C323.13784,431.581877 324.602532,430 326.415691,430 C328.228851,430 329.700254,431.583634 329.700254,433.532858 C329.700254,433.858022 329.649748,434.174397 329.57399,434.473196 C329.368599,434.24646 329.085766,434.114637 328.787782,434.104091 C328.831554,433.919539 328.850073,433.729714 328.850073,433.5311 C328.850073,432.088077 327.76083,430.912216 326.415691,430.912216 C325.070552,430.912216 323.98131,432.082804 323.98131,433.5311 C323.98131,433.905478 324.063803,434.26931 324.195118,434.592716 L324.193434,436.120105 L324.193434,436.120105 Z" id="icon-部署"></path>
        </g>
    </g>
</svg>