<?xml version="1.0" encoding="UTF-8"?>
<svg width="22px" height="20px" viewBox="0 0 22 20" version="1.1" xmlns="http://www.w3.org/2000/svg" xmlns:xlink="http://www.w3.org/1999/xlink">
    <!-- Generator: Sketch 59 (86127) - https://sketch.com -->
    <title>icon-大模型2</title>
    <desc>Created with Sketch.</desc>
    <g id="页面-2" stroke="none" stroke-width="1" fill="none" fill-rule="evenodd">
        <g id="我的AI-部署-新增" transform="translate(-1478.000000, -244.000000)" fill="#1D64F3" fill-rule="nonzero" stroke="#1D64F3" stroke-width="0.2">
            <path d="M1493.66736,252.071683 C1494.77002,252.071683 1495.66733,252.936994 1495.66733,254.000336 C1495.66733,255.063678 1494.77002,255.928989 1493.66736,255.928989 L1493.66736,255.928989 L1489.6674,255.928989 L1489.6674,258.606718 C1490.53123,258.856409 1491.16739,259.568892 1491.29908,260.429897 L1491.29908,260.429897 L1494.47315,260.429897 C1494.73877,259.844413 1495.33698,259.465571 1495.99992,259.465571 C1496.91955,259.465571 1497.66731,260.184511 1497.66731,261.071347 C1497.66731,261.712796 1497.27446,262.291823 1496.66509,262.547972 C1495.82135,262.900984 1494.83922,262.528599 1494.47315,261.714949 L1494.47315,261.714949 L1491.09819,261.714949 C1490.72319,262.470481 1489.92633,263 1489,263 C1488.07367,263 1487.27681,262.472634 1486.90181,261.714949 L1486.90181,261.714949 L1483.52462,261.714949 C1483.259,262.296128 1482.66302,262.672818 1482.00231,262.67497 C1481.08268,262.677123 1480.33492,261.958183 1480.33269,261.071347 C1480.33269,260.429897 1480.72554,259.850871 1481.33491,259.594722 C1482.17865,259.241709 1483.16078,259.614094 1483.52685,260.427745 L1483.52685,260.427745 L1486.70092,260.427745 C1486.83038,259.566739 1487.46654,258.854257 1488.3326,258.604565 L1488.3326,258.604565 L1488.3326,255.928989 L1484.33264,255.928989 C1483.22998,255.928989 1482.33267,255.063678 1482.33267,254.000336 C1482.33267,252.936994 1483.22998,252.071683 1484.33264,252.071683 L1484.33264,252.071683 Z M1489,259.786296 C1488.44867,259.786296 1488.00001,260.218951 1488.00001,260.750622 C1488.00001,261.282293 1488.44867,261.714949 1489,261.714949 C1489.55133,261.714949 1489.99999,261.282293 1489.99999,260.750622 C1489.99999,260.218951 1489.55133,259.786296 1489,259.786296 Z M1486.46655,245.482835 C1489.87499,244.135361 1493.77003,245.704544 1495.16957,248.991434 C1497.42401,249.503733 1499.01104,251.447454 1498.99994,253.679611 C1498.99994,256.337967 1496.75661,258.501244 1493.99994,258.501244 L1493.99994,258.501244 L1491.97541,258.501244 C1491.60711,258.501244 1491.30801,258.212807 1491.30801,257.857642 C1491.30801,257.502477 1491.60711,257.21404 1491.97541,257.21404 L1491.97541,257.21404 L1494.00217,257.21404 C1496.02447,257.21404 1497.66954,255.627637 1497.66954,253.677459 C1497.67847,251.933922 1496.36152,250.448687 1494.57583,250.183927 L1494.57583,250.183927 L1494.17851,250.123657 L1494.04682,249.75773 C1493.30575,247.6784 1491.27899,246.283571 1489,246.283571 C1486.72101,246.283571 1484.69201,247.680553 1483.95318,249.75773 L1483.95318,249.75773 L1483.82372,250.123657 L1483.4264,250.183927 C1481.64071,250.448687 1480.32376,251.933922 1480.33269,253.677459 C1480.33492,255.62979 1481.97553,257.211888 1484.00006,257.21404 L1484.00006,257.21404 L1485.90629,257.21404 C1486.27459,257.21404 1486.57369,257.502477 1486.57369,257.857642 C1486.57369,258.212807 1486.27459,258.501244 1485.90629,258.501244 L1485.90629,258.501244 L1484.00006,258.501244 C1481.24339,258.501244 1479.00006,256.337967 1479.00006,253.679611 C1478.98896,251.447454 1480.57599,249.50158 1482.8282,248.991434 C1483.50676,247.398573 1484.81701,246.135047 1486.46655,245.482835 Z M1493.66512,253.358887 L1484.33264,253.358887 C1483.9889,253.373954 1483.71212,253.638714 1483.69649,253.972353 C1483.67863,254.327518 1483.96434,254.62887 1484.33264,254.643938 L1484.33264,254.643938 L1493.66512,254.643938 C1494.00887,254.62887 1494.28565,254.364111 1494.30128,254.030471 C1494.31913,253.675306 1494.03342,253.373954 1493.66512,253.358887 L1493.66512,253.358887 Z" id="icon-大模型2"></path>
        </g>
    </g>
</svg>