<?xml version="1.0" encoding="UTF-8"?>
<svg width="20px" height="22px" viewBox="0 0 20 22" version="1.1" xmlns="http://www.w3.org/2000/svg" xmlns:xlink="http://www.w3.org/1999/xlink">
    <!-- Generator: Sketch 59 (86127) - https://sketch.com -->
    <title>icon-大模型5</title>
    <desc>Created with Sketch.</desc>
    <g id="页面-2" stroke="none" stroke-width="1" fill="none" fill-rule="evenodd">
        <g id="我的AI-部署-新增" transform="translate(-1671.000000, -243.000000)" fill="#1D64F3" fill-rule="nonzero" stroke="#1D64F3" stroke-width="0.5">
            <path d="M1681.81239,244.213984 L1689.18771,248.413147 C1689.68882,248.698458 1690,249.230214 1690,249.800624 L1690,258.199163 C1690,258.769786 1689.68882,259.301328 1689.18771,259.58664 L1681.81218,263.786016 C1681.56163,263.928672 1681.28076,264 1680.99989,264 C1680.71902,264 1680.43816,263.928672 1680.18761,263.786016 L1672.81229,259.586853 C1672.31118,259.301542 1672,258.769786 1672,258.199376 L1672,249.800837 C1672,249.230214 1672.31118,248.698672 1672.81229,248.41336 L1680.18761,244.213984 C1680.68871,243.928672 1681.31129,243.928672 1681.81239,244.213984 Z M1680.99989,245.067355 C1680.90612,245.067355 1680.81257,245.091061 1680.72899,245.138684 L1673.35367,249.337846 C1673.18649,249.433093 1673.08276,249.610345 1673.08276,249.800624 L1673.08276,258.199163 C1673.08276,258.389442 1673.18649,258.566907 1673.35367,258.66194 L1680.72899,262.861103 C1680.89616,262.956349 1681.10384,262.956349 1681.27101,262.861103 L1688.64633,258.66194 C1688.81351,258.566694 1688.91724,258.389442 1688.91724,258.199163 L1688.91724,249.800837 C1688.91724,249.610558 1688.81351,249.433093 1688.64633,249.33806 L1681.2708,245.138684 C1681.18842,245.091842 1681.09498,245.067355 1680.99989,245.067355 Z M1688.08828,249.963994 C1688.2377,250.219408 1688.14913,250.545936 1687.89014,250.69329 L1681.541,254.308 L1681.54127,261.537906 C1681.54127,261.832828 1681.29895,262.071798 1680.99989,262.071798 C1680.70083,262.071798 1680.45851,261.832828 1680.45851,261.537906 L1680.458,254.308 L1674.10965,250.693504 C1673.85065,250.54615 1673.76208,250.219622 1673.9115,249.964208 C1674.06092,249.708794 1674.39203,249.62145 1674.65103,249.768804 L1681,253.383 L1687.34876,249.76859 C1687.60775,249.621236 1687.93886,249.708581 1688.08828,249.963994 Z M1687.76475,253.073164 C1687.93253,253.168414 1688.03588,253.34481 1688.03588,253.535728 L1688.03588,256.211805 C1688.03588,256.402298 1687.93301,256.578268 1687.76605,256.673728 L1683.41899,259.158886 C1683.33646,259.205999 1683.2428,259.230855 1683.14744,259.230855 C1683.0541,259.230855 1682.96077,259.20715 1682.87718,259.159527 C1682.7094,259.064278 1682.60606,258.887882 1682.60606,258.696963 L1682.60606,256.020886 C1682.60606,255.830393 1682.70892,255.654423 1682.87588,255.558963 L1687.22294,253.073805 C1687.39033,252.978132 1687.59692,252.977705 1687.76475,253.073164 Z M1674.65103,254.283176 L1679.35128,256.959253 C1679.61028,257.106607 1679.69885,257.433135 1679.54943,257.688549 C1679.44895,257.859821 1679.26704,257.955495 1679.07994,257.955495 C1678.98813,257.955495 1678.89501,257.932431 1678.80969,257.883953 L1674.10965,255.207876 C1673.85065,255.060522 1673.76208,254.733994 1673.9115,254.47858 C1674.06092,254.223167 1674.39203,254.135822 1674.65103,254.283176 Z M1686.95312,254.46235 L1683.68882,256.328407 L1683.68882,257.770341 L1686.95312,255.904284 L1686.95312,254.46235 Z" id="icon-大模型5"></path>
        </g>
    </g>
</svg>