<?xml version="1.0" encoding="UTF-8"?>
<svg width="22px" height="20px" viewBox="0 0 22 20" version="1.1" xmlns="http://www.w3.org/2000/svg" xmlns:xlink="http://www.w3.org/1999/xlink">
    <!-- Generator: Sketch 59 (86127) - https://sketch.com -->
    <title>icon-大模型4</title>
    <desc>Created with Sketch.</desc>
    <g id="页面-2" stroke="none" stroke-width="1" fill="none" fill-rule="evenodd">
        <g id="我的AI-部署-新增" transform="translate(-1606.000000, -244.000000)" fill="#1D64F3" fill-rule="nonzero">
            <path d="M1627.99876,255.385699 C1628.03559,254.463235 1627.24002,254.128037 1627.24002,254.128037 L1622.83981,252.071264 C1622.83981,252.071264 1622.84963,248.496715 1622.83981,247.534027 C1622.82753,246.565976 1622.04424,246.230778 1622.04424,246.230778 C1622.04424,246.230778 1618.56237,244.696913 1617.52862,244.1311 C1616.98842,243.836126 1616.42857,244.1311 1616.42857,244.1311 C1616.42857,244.1311 1613.15297,245.734686 1612.13886,246.187873 C1611.21314,246.600836 1611.22788,247.491122 1611.22788,247.491122 L1611.22788,252.041766 C1611.22788,252.041766 1608.34269,253.422781 1607.12969,253.951052 C1605.96825,254.45519 1606.00009,255.514415 1606.00009,255.514415 C1606.00009,255.514415 1606.00999,259.145277 1606.00009,260.091875 C1605.99035,261.113558 1606.82276,261.435348 1606.82276,261.435348 C1606.82276,261.435348 1609.622,262.993347 1610.96023,263.669105 C1611.94978,264.16788 1612.59066,263.685195 1612.59066,263.685195 L1616.98596,261.293224 C1616.98596,261.293224 1620.46291,263.103292 1621.28058,263.674468 C1622.23085,264.334138 1622.87419,263.787095 1622.87419,263.787095 C1622.87419,263.787095 1626.74647,261.615014 1627.35297,261.309313 C1627.99876,260.98216 1627.99876,260.175004 1627.99876,260.175004 C1627.99876,260.175004 1627.96193,256.308163 1627.99876,255.385699 Z M1611.83438,257.190403 L1607.80986,255.23553 L1611.83192,253.283339 L1615.93011,255.216759 L1611.83438,257.190403 Z M1616.34754,260.086512 L1612.47771,262.226414 L1612.47771,258.40516 L1616.34754,256.55755 L1616.34754,260.086512 L1616.34754,260.086512 Z M1616.98351,249.585437 L1612.62995,247.528664 L1616.98351,245.399488 L1621.5114,247.528664 L1616.98351,249.585437 L1616.98351,249.585437 Z M1617.6784,250.848462 L1621.5114,249.000852 L1621.5114,252.108806 L1617.6784,253.996639 L1617.6784,250.848462 Z M1622.2505,257.190403 L1618.24562,255.23553 L1622.07861,253.283339 L1626.25292,255.23553 L1622.2505,257.190403 L1622.2505,257.190403 Z M1626.67035,260.215228 L1622.87419,262.231777 L1622.87419,258.40516 L1626.67035,256.55755 L1626.67035,260.215228 Z" id="icon-大模型4"></path>
        </g>
    </g>
</svg>