<?xml version="1.0" encoding="UTF-8"?>
<svg width="22px" height="22px" viewBox="0 0 22 22" version="1.1" xmlns="http://www.w3.org/2000/svg" xmlns:xlink="http://www.w3.org/1999/xlink">
    <!-- Generator: Sketch 59 (86127) - https://sketch.com -->
    <title>icon-大模型6</title>
    <desc>Created with Sketch.</desc>
    <g id="页面-2" stroke="none" stroke-width="1" fill="none" fill-rule="evenodd">
        <g id="我的AI-部署-新增" transform="translate(-1734.000000, -243.000000)" fill="#1D64F3" fill-rule="nonzero" stroke="#1D64F3" stroke-width="0.4">
            <path d="M1747.0868,244 C1748.82353,244 1750.23657,245.413045 1750.23657,247.149772 L1750.236,248.763 L1751.86649,248.763179 C1753.59421,248.763179 1755,250.16897 1755,251.896692 L1755,256.103308 C1755,257.83103 1753.59421,259.236821 1751.86649,259.236821 L1750.236,259.236 L1750.23657,260.849978 C1750.23682,262.586955 1748.82378,264 1747.0868,264 L1742.91295,264 C1741.17622,264 1739.76318,262.586955 1739.76318,260.850228 L1739.763,259.236 L1738.13351,259.236821 C1736.40579,259.236821 1735,257.83103 1735,256.103308 L1735,251.896692 C1735,250.16897 1736.40579,248.763179 1738.13351,248.763179 L1739.763,248.763 L1739.76318,247.149772 C1739.76318,245.413045 1741.17622,244 1742.91295,244 L1747.0868,244 Z M1750.23657,251.560253 C1750.23657,253.250203 1748.86155,254.625227 1747.1716,254.625227 L1742.82815,254.625227 C1741.82784,254.625227 1741.01388,255.439185 1741.01388,256.439497 L1741.01388,260.849978 C1741.01388,261.897067 1741.86586,262.749046 1742.91295,262.749046 L1747.0868,262.749046 C1748.13389,262.749046 1748.98587,261.897067 1748.98587,260.849978 L1748.985,259.236 L1744.69996,259.236821 C1744.35451,259.236821 1744.0746,258.956913 1744.0746,258.611469 C1744.0746,258.266025 1744.35451,257.986117 1744.69996,257.986117 L1751.86649,257.986117 C1752.90457,257.986117 1753.7493,257.141392 1753.7493,256.103308 L1753.7493,251.896692 C1753.7493,250.858608 1752.90457,250.013883 1751.86649,250.013883 L1750.236,250.013 L1750.23657,251.560253 Z M1747.63611,260.260146 C1748.08703,260.260146 1748.45257,260.625688 1748.45257,261.076606 C1748.45257,261.527524 1748.08703,261.893065 1747.63611,261.893065 C1747.18519,261.893065 1746.81965,261.527524 1746.81965,261.076606 C1746.81965,260.625688 1747.18519,260.260146 1747.63611,260.260146 Z M1747.08705,245.250704 L1742.91295,245.250704 C1741.86586,245.250704 1741.01388,246.102683 1741.01388,247.149772 L1741.013,248.763 L1745.30004,248.763179 C1745.64549,248.763179 1745.9254,249.043087 1745.9254,249.388531 C1745.9254,249.733975 1745.64549,250.013883 1745.30004,250.013883 L1738.13351,250.013883 C1737.09543,250.013883 1736.2507,250.858608 1736.2507,251.896692 L1736.2507,256.103308 C1736.2507,257.141392 1737.09543,257.986117 1738.13351,257.986117 L1739.763,257.986 L1739.76318,256.439497 C1739.76318,254.749547 1741.1382,253.374523 1742.82815,253.374523 L1747.17185,253.374523 C1748.17216,253.374523 1748.98612,252.560565 1748.98612,251.560253 L1748.98612,247.149772 C1748.98612,246.102683 1748.13414,245.250704 1747.08705,245.250704 Z M1742.59602,246.460634 C1743.04694,246.460634 1743.41248,246.826175 1743.41248,247.277093 C1743.41248,247.728011 1743.04694,248.093553 1742.59602,248.093553 C1742.1451,248.093553 1741.77956,247.728011 1741.77956,247.277093 C1741.77956,246.826175 1742.1451,246.460634 1742.59602,246.460634 Z" id="icon-大模型6"></path>
        </g>
    </g>
</svg>