<?xml version="1.0" encoding="UTF-8"?>
<svg width="24px" height="22px" viewBox="0 0 24 22" version="1.1" xmlns="http://www.w3.org/2000/svg" xmlns:xlink="http://www.w3.org/1999/xlink">
    <!-- Generator: Sketch 59 (86127) - https://sketch.com -->
    <title>icon-大模型7</title>
    <desc>Created with Sketch.</desc>
    <g id="页面-2" stroke="none" stroke-width="1" fill="none" fill-rule="evenodd">
        <g id="我的AI-部署-新增" transform="translate(-1797.000000, -243.000000)" fill="#1D64F3" fill-rule="nonzero" stroke="#1D64F3" stroke-width="0.5">
            <path d="M1806.59354,261.581189 L1808.74283,262.840636 C1808.90139,262.933525 1809.0984,262.933525 1809.25717,262.840636 L1811.31107,261.637009 C1811.56803,261.486556 1811.89652,261.575738 1812.04477,261.836523 C1812.19301,262.097309 1812.10514,262.430705 1811.84818,262.581159 L1809.79428,263.784786 C1809.55266,263.925901 1809.27876,264.000116 1809,264 C1808.72543,264 1808.45064,263.928262 1808.20572,263.784786 L1806.05643,262.525338 C1805.79947,262.374885 1805.7116,262.041489 1805.85984,261.780703 C1806.00809,261.519917 1806.33658,261.430735 1806.59354,261.581189 Z M1809.22404,244.01602 L1809.37146,244.044936 C1809.51794,244.080535 1809.66041,244.137494 1809.79406,244.215813 L1813.02445,246.108692 C1813.05151,246.12453 1813.07685,246.142541 1813.10031,246.162425 L1813.02467,246.108256 C1813.06581,246.132348 1813.10262,246.161131 1813.13482,246.193556 C1813.14341,246.202989 1813.15284,246.213217 1813.16185,246.223776 C1813.17695,246.240551 1813.19052,246.258667 1813.20289,246.277488 C1813.20626,246.283626 1813.21009,246.289703 1813.2138,246.295853 C1813.22469,246.312913 1813.23405,246.330608 1813.24241,246.348735 C1813.24605,246.357677 1813.24999,246.366821 1813.25369,246.376074 C1813.2612,246.393888 1813.2673,246.411927 1813.27246,246.430236 C1813.27538,246.44173 1813.27838,246.453799 1813.28097,246.465984 C1813.28406,246.479235 1813.28633,246.492251 1813.28812,246.505344 C1813.29015,246.521826 1813.29173,246.538964 1813.2925,246.556229 C1813.29336,246.570235 1813.29345,246.584258 1813.293,246.598296 C1813.29247,246.608253 1813.2919,246.61805 1813.29107,246.627865 L1813.28838,246.654158 C1813.28684,246.665573 1813.28495,246.67697 1813.28268,246.688332 L1813.29107,246.627865 C1813.28797,246.664156 1813.28135,246.699569 1813.27152,246.733702 C1813.26661,246.75098 1813.26072,246.768119 1813.25394,246.78506 C1813.24827,246.799306 1813.24193,246.813449 1813.23503,246.82727 C1813.23062,246.835884 1813.22606,246.844426 1813.22125,246.852891 L1813.21607,246.862005 C1813.20419,246.882028 1813.19105,246.901246 1813.17676,246.919538 L1813.22125,246.852891 C1813.2038,246.883597 1813.18384,246.911924 1813.1618,246.937761 C1813.14698,246.955198 1813.13123,246.971466 1813.11449,246.986708 C1813.10823,246.992285 1813.10198,246.997699 1813.09563,247.002952 C1813.05011,247.040864 1812.99792,247.071441 1812.94066,247.092744 C1811.81514,247.511009 1810.75828,248.095583 1809.79796,248.831299 C1811.09712,250.048579 1812.14175,251.520506 1812.87814,253.186325 C1813.00115,253.464511 1813.11472,253.746564 1813.21872,254.031982 L1816.65155,254.034316 C1816.72265,253.976188 1816.79302,253.917307 1816.86264,253.857696 C1817.02244,253.72096 1817.24586,253.69068 1817.43541,253.780071 C1817.54837,253.833358 1817.63706,253.923408 1817.69026,254.032381 L1820,254.032135 L1820,254.143776 L1817.73028,254.143039 C1817.74064,254.185426 1817.74607,254.229475 1817.74607,254.274387 L1817.74629,258.194461 L1817.74629,258.194461 C1817.74629,258.768582 1817.44186,259.303673 1816.95201,259.590625 L1815.696,260.325 L1813.55447,261.581189 C1813.50026,261.612894 1813.44095,261.634718 1813.37952,261.64572 L1813.28656,261.654235 L1813.28656,261.654235 C1813.25845,261.654017 1813.2308,261.651851 1813.20343,261.647531 L1813.28656,261.654235 C1813.24068,261.654235 1813.19511,261.648266 1813.151,261.636638 C1813.13976,261.633552 1813.12847,261.630171 1813.11727,261.626405 C1813.10391,261.622063 1813.09076,261.617068 1813.07781,261.611553 C1813.06312,261.605084 1813.04846,261.598016 1813.03408,261.590241 C1813.02133,261.583676 1813.00885,261.5763 1812.99666,261.568403 C1812.9895,261.563312 1812.98233,261.558392 1812.97525,261.553279 L1812.96478,261.546057 C1812.94987,261.534782 1812.93549,261.522668 1812.92169,261.509735 L1812.97525,261.553279 C1812.94396,261.530721 1812.91555,261.505159 1812.89026,261.477165 C1812.88097,261.467389 1812.8721,261.45677 1812.8636,261.445745 C1812.85364,261.432392 1812.84426,261.419047 1812.8355,261.405329 C1812.83059,261.398053 1812.8257,261.38995 1812.821,261.381674 L1812.81261,261.365947 C1812.8042,261.349994 1812.79658,261.333637 1812.78978,261.316938 L1812.821,261.381674 C1812.80293,261.349894 1812.78837,261.317035 1812.7772,261.283561 C1812.77067,261.263259 1812.76509,261.242627 1812.76071,261.221684 C1812.75846,261.211925 1812.75666,261.201881 1812.75514,261.191819 C1812.75362,261.180592 1812.7523,261.169675 1812.75131,261.158703 C1812.74674,261.10913 1812.74905,261.059589 1812.75774,261.011332 C1812.75798,261.009757 1812.75823,261.008412 1812.75848,261.007067 C1812.98814,259.779309 1813.03187,258.525325 1812.88843,257.279061 C1811.63708,257.67158 1810.33674,257.870877 1809.01934,257.870877 C1808.589,257.870877 1808.15717,257.849726 1807.72426,257.806771 C1806.80972,257.716519 1805.90798,257.530469 1805.0333,257.252268 C1804.9769,257.729983 1804.94912,258.214517 1804.94912,258.70295 C1804.94912,259.459796 1805.01723,260.218386 1805.1515,260.957788 C1805.16847,261.051094 1805.16089,261.145051 1805.13207,261.231388 C1805.12805,261.242536 1805.12391,261.253661 1805.11939,261.2647 C1805.11249,261.282513 1805.10433,261.299875 1805.09529,261.316773 C1805.09273,261.320641 1805.09056,261.324564 1805.08834,261.328471 L1805.07632,261.34945 C1805.06566,261.366418 1805.05406,261.382825 1805.04154,261.398583 L1805.08834,261.328471 C1805.06993,261.360856 1805.04874,261.390595 1805.02526,261.417557 C1805.0105,261.43506 1804.99397,261.451729 1804.9763,261.467347 C1804.96857,261.473747 1804.96092,261.480133 1804.95313,261.486285 C1804.94654,261.491893 1804.93984,261.496928 1804.93301,261.501819 L1804.90708,261.518826 C1804.89718,261.525067 1804.8871,261.530969 1804.87685,261.536524 L1804.93301,261.501819 C1804.89985,261.525364 1804.86437,261.544942 1804.82731,261.560311 C1804.8174,261.564302 1804.80731,261.568144 1804.79713,261.571675 C1804.7789,261.578065 1804.76056,261.583318 1804.74198,261.587578 C1804.73392,261.589387 1804.72575,261.591068 1804.71754,261.592556 L1804.7056,261.594597 C1804.68574,261.597717 1804.66566,261.599716 1804.64547,261.600564 C1804.63895,261.600882 1804.63254,261.601039 1804.62612,261.60108 L1804.6232,261.601031 L1804.60131,261.600653 C1804.51719,261.597231 1804.43262,261.573642 1804.35465,261.527985 L1801.04799,259.590407 C1800.55814,259.303455 1800.25371,258.768364 1800.25371,258.194243 L1800.25371,254.279402 C1800.25371,254.232691 1800.2596,254.18691 1800.27079,254.142962 L1798,254.143776 L1798,254.032135 L1800.31199,254.032477 C1800.3655,253.925639 1800.4533,253.837463 1800.56459,253.785086 C1800.7543,253.695686 1800.97773,253.726213 1801.13736,253.863147 L1801.342,254.032 L1804.69393,254.032696 C1805.09462,252.934437 1805.63915,251.887964 1806.32047,250.915787 C1806.85024,250.159583 1807.45473,249.461715 1808.1239,248.83276 C1807.72977,248.531774 1807.31424,248.253016 1806.87992,247.998517 C1806.29005,247.652921 1805.66941,247.355769 1805.03509,247.11562 C1804.92698,247.079887 1804.8297,247.007173 1804.76205,246.904127 C1804.76148,246.899703 1804.75967,246.896888 1804.75788,246.894055 L1804.74352,246.873824 L1804.74352,246.873824 C1804.6879,246.77599 1804.66552,246.667937 1804.67283,246.563158 L1804.67498,246.645745 C1804.67227,246.612921 1804.6725,246.58031 1804.67553,246.548243 C1804.67647,246.523554 1804.68049,246.499159 1804.68612,246.475159 C1804.68859,246.470049 1804.68992,246.464689 1804.69132,246.459354 C1804.69591,246.437375 1804.70301,246.415978 1804.71141,246.395078 C1804.71603,246.386411 1804.71995,246.377313 1804.72411,246.368333 C1804.73174,246.349511 1804.7412,246.331803 1804.75164,246.314628 C1804.75713,246.307269 1804.76241,246.299022 1804.7679,246.29092 C1804.77838,246.274091 1804.79048,246.258296 1804.80348,246.243149 C1804.81129,246.23498 1804.81833,246.227215 1804.82559,246.219651 C1804.83831,246.205777 1804.85237,246.1927 1804.86723,246.180327 C1804.89018,246.161297 1804.91507,246.143653 1804.9416,246.128098 L1808.20572,244.215377 C1808.38363,244.111388 1808.57747,244.044936 1808.7756,244.016456 L1808.92504,244.00178 C1809.02482,243.997033 1809.12496,244.00178 1809.22404,244.01602 Z M1816.67207,255.384471 C1816.33331,255.628073 1815.9836,255.855596 1815.62406,256.066308 C1815.07307,256.389184 1814.50518,256.669691 1813.92392,256.907052 C1813.93372,256.972245 1813.94222,257.039718 1813.95021,257.107271 C1814.0673,258.096339 1814.07611,259.090422 1813.97707,260.07491 L1816.4149,258.646475 C1816.57346,258.553587 1816.67207,258.380456 1816.67207,258.194461 L1816.67207,255.384471 Z M1801.32793,255.390358 L1801.32793,258.194243 C1801.32793,258.38002 1801.42654,258.553369 1801.5851,258.646257 L1803.9385,260.025195 C1803.89614,259.585539 1803.87492,259.144049 1803.8749,258.702296 C1803.8749,258.085627 1803.9156,257.474646 1803.99604,256.872432 C1803.95372,256.85632 1803.91029,256.838111 1803.86695,256.819666 C1802.96826,256.437427 1802.11791,255.958374 1801.32793,255.390358 Z M1812.11056,254.143025 L1805.80318,254.143027 C1805.54711,254.797222 1805.34728,255.472579 1805.20552,256.163317 C1806.05685,256.446655 1806.93502,256.633781 1807.82824,256.72198 C1809.49327,256.886527 1811.14736,256.704384 1812.71377,256.192538 C1812.57179,255.491695 1812.36968,254.806779 1812.11056,254.143025 Z M1816.51527,254.144104 L1813.25846,254.142537 C1813.45132,254.686338 1813.60957,255.242048 1813.73228,255.806225 C1814.19392,255.609161 1814.6462,255.380499 1815.08674,255.122377 C1815.58513,254.830297 1816.06406,254.502284 1816.51527,254.144104 Z M1804.65409,254.143387 L1801.477,254.143 L1801.49638,254.159184 C1802.3201,254.812304 1803.2238,255.354504 1804.1894,255.774617 C1804.30992,255.219698 1804.46519,254.675589 1804.65409,254.143387 Z M1808.96333,249.533932 L1808.68529,249.794417 C1808.13675,250.329913 1807.63792,250.91691 1807.19574,251.548127 C1806.64884,252.328593 1806.19787,253.16123 1805.84717,254.032243 L1812.06673,254.032314 C1812.01283,253.898042 1811.95659,253.764661 1811.89803,253.632234 C1811.20173,252.0571 1810.20531,250.670617 1808.96333,249.533932 Z M1803.96771,247.328236 C1804.11596,247.589022 1804.02809,247.922418 1803.77113,248.072872 L1801.5851,249.353906 C1801.42654,249.446795 1801.32793,249.619925 1801.32793,249.80592 L1801.32793,252.27968 C1801.32793,252.580805 1801.08752,252.824801 1800.79082,252.824801 C1800.49412,252.824801 1800.25371,252.580805 1800.25371,252.27968 L1800.25371,249.80592 C1800.25371,249.231799 1800.55814,248.696708 1801.04799,248.409757 L1803.23402,247.128722 C1803.49098,246.978269 1803.81947,247.067451 1803.96771,247.328236 Z M1814.73719,247.111932 L1816.95201,248.409757 C1817.44186,248.696708 1817.74629,249.231799 1817.74629,249.80592 L1817.74629,252.276845 C1817.74629,252.577752 1817.50566,252.821748 1817.20918,252.821748 C1816.91248,252.821748 1816.67207,252.577752 1816.67207,252.276627 L1816.67207,249.80592 C1816.67207,249.620143 1816.57346,249.446795 1816.4149,249.353906 L1814.20008,248.056082 C1813.94313,247.905629 1813.85525,247.572233 1814.0035,247.311447 C1814.15174,247.050661 1814.48023,246.961479 1814.73719,247.111932 Z M1808.74262,245.159963 L1806.68,246.368 L1806.41543,246.523638 C1806.75647,246.68632 1807.09063,246.863459 1807.41703,247.054586 C1807.95974,247.372601 1808.47548,247.725444 1808.96197,248.110557 L1809.07133,248.022066 L1809.07133,248.022066 C1809.84176,247.422651 1810.67041,246.913072 1811.54504,246.500525 L1809.25695,245.159963 C1809.0984,245.067074 1808.90139,245.067074 1808.74262,245.159963 Z" id="icon-大模型7"></path>
        </g>
    </g>
</svg>