<?xml version="1.0" encoding="UTF-8"?>
<svg width="22px" height="22px" viewBox="0 0 22 22" version="1.1" xmlns="http://www.w3.org/2000/svg" xmlns:xlink="http://www.w3.org/1999/xlink">
    <!-- Generator: Sketch 59 (86127) - https://sketch.com -->
    <title>icon-大模型1</title>
    <desc>Created with Sketch.</desc>
    <g id="页面-2" stroke="none" stroke-width="1" fill="none" fill-rule="evenodd">
        <g id="我的AI-部署-新增" transform="translate(-1414.000000, -243.000000)" fill="#1D64F3" fill-rule="nonzero" stroke="#1D64F3" stroke-width="0.4">
            <path d="M1425.85999,244.22563 L1429.27574,246.163985 C1429.54609,246.317293 1429.63854,246.657016 1429.48257,246.922751 C1429.3266,247.188486 1428.98098,247.279361 1428.71063,247.126052 L1425.29488,245.187698 C1425.11337,245.084603 1424.888,245.084603 1424.70649,245.187698 L1419.34698,248.229652 C1419.26124,248.278396 1419.16394,248.304084 1419.06488,248.304084 C1419.00775,248.304084 1418.95107,248.295565 1418.89686,248.279049 C1418.89528,248.277004 1418.89364,248.2765 1418.89199,248.275988 C1418.83639,248.260055 1418.78349,248.234154 1418.73543,248.200392 C1418.729,248.194953 1418.72242,248.190149 1418.71593,248.185194 C1418.70197,248.175311 1418.68866,248.164042 1418.67585,248.15211 C1418.66346,248.140063 1418.65109,248.127532 1418.63926,248.114344 C1418.63018,248.104441 1418.62192,248.094445 1418.61398,248.08411 C1418.60407,248.071298 1418.59461,248.057972 1418.58567,248.044126 C1418.47016,247.865488 1418.31622,247.720623 1418.12793,247.613751 C1417.49229,247.253143 1416.67673,247.467775 1416.30963,248.092563 C1416.13196,248.395181 1416.08472,248.747791 1416.17672,249.085292 C1416.26872,249.422793 1416.48888,249.70497 1416.79698,249.87983 C1417.10485,250.054469 1417.46359,250.100906 1417.80695,250.010476 C1417.95829,249.970616 1418.09871,249.90628 1418.22365,249.820854 L1417.17968,249.227713 C1416.90933,249.074405 1416.81687,248.734682 1416.97284,248.468947 C1417.12882,248.203212 1417.47444,248.112337 1417.74479,248.265646 L1419.38237,249.194775 C1419.38399,249.195673 1419.38561,249.19658 1419.38722,249.197496 L1419.391,249.2 L1422.63601,251.041731 C1423.20681,250.385008 1424.05517,249.968038 1425.0008,249.968038 C1425.94643,249.968038 1426.79479,250.385008 1427.36558,251.041731 L1430.18172,249.442644 C1429.86095,248.392728 1430.30187,247.22304 1431.30855,246.651684 C1432.48398,245.98468 1433.99215,246.38195 1434.67073,247.537097 C1435.34932,248.692466 1434.94515,250.174894 1433.76995,250.841898 C1433.57338,250.953522 1433.36219,251.037596 1433.1436,251.092155 L1433.1438,256.622966 C1433.1438,257.224647 1432.81446,257.785223 1432.28438,258.086064 L1428.85168,260.034194 C1428.76588,260.082774 1428.6686,260.108405 1428.56958,260.108405 C1428.37428,260.108405 1428.1844,260.008865 1428.07974,259.830672 C1427.92377,259.564937 1428.01622,259.225214 1428.28657,259.071905 L1431.71928,257.123775 C1431.90079,257.02068 1432.01358,256.828933 1432.01358,256.622744 L1432.01358,250.610824 C1432.01358,250.566422 1432.01888,250.52324 1432.02889,250.481853 C1432.03897,250.439422 1432.05414,250.398927 1432.07363,250.360909 C1432.0795,250.349868 1432.08574,250.338683 1432.09234,250.32774 C1432.10111,250.312808 1432.11053,250.298711 1432.12057,250.285076 C1432.12518,250.279224 1432.12999,250.272965 1432.13493,250.266811 C1432.16618,250.227499 1432.20271,250.192704 1432.24346,250.163151 C1432.2524,250.157094 1432.26114,250.151129 1432.27006,250.145405 C1432.28468,250.135599 1432.29993,250.126773 1432.31563,250.118651 C1432.32285,250.115324 1432.32997,250.111829 1432.33717,250.108478 C1432.35704,250.098824 1432.37779,250.090603 1432.39911,250.083595 C1432.40356,250.082514 1432.40812,250.081076 1432.4127,250.079695 C1432.43342,250.073087 1432.45442,250.068037 1432.47586,250.064173 L1432.48701,250.062626 C1432.50013,250.060524 1432.5134,250.058866 1432.5268,250.057667 C1432.54037,250.056126 1432.55382,250.055396 1432.56739,250.055136 C1432.78982,250.050692 1433.01021,249.990257 1433.20484,249.87983 C1433.84047,249.519222 1434.05906,248.717351 1433.69196,248.092563 C1433.32509,247.467775 1432.5093,247.25292 1431.87366,247.613751 C1431.41333,247.874906 1431.17173,248.367492 1431.21292,248.856644 L1432.25681,248.265646 C1432.52716,248.112337 1432.87278,248.203212 1433.02875,248.468947 C1433.18472,248.734682 1433.09227,249.074405 1432.82192,249.227713 L1427.93214,252.003718 C1428.0476,252.323117 1428.11048,252.666801 1428.11048,253.024657 C1428.11048,254.520527 1427.01179,255.768767 1425.56591,256.030712 L1425.56602,259.226042 C1426.65164,259.477768 1427.46196,260.438138 1427.46196,261.580834 C1427.46196,262.914619 1426.35796,264 1425.0008,264 C1423.64363,264 1422.53963,262.914619 1422.53963,261.580834 C1422.53963,261.344075 1422.57494,261.109381 1422.6435,260.884613 L1417.71992,258.090285 C1417.18985,257.789445 1416.8605,257.228869 1416.8605,256.627188 L1416.8605,252.80447 C1416.8605,252.497631 1417.11344,252.249004 1417.42561,252.249004 C1417.73778,252.249004 1417.99072,252.497631 1417.99072,252.80447 L1417.99072,256.627188 C1417.99072,256.833155 1418.10352,257.025124 1418.28503,257.127996 L1423.63669,260.165196 C1423.63833,260.166105 1423.63996,260.167024 1423.64159,260.167951 L1423.717,260.22 C1423.77448,260.266908 1423.81578,260.316144 1423.84752,260.370166 C1423.87112,260.410286 1423.88919,260.452351 1423.90186,260.495915 C1423.90509,260.507549 1423.90801,260.519001 1423.91057,260.530537 L1423.90186,260.495915 C1423.94255,260.635786 1423.92766,260.791103 1423.84775,260.92694 C1423.73133,261.124463 1423.66985,261.350649 1423.66985,261.580834 C1423.66985,262.302274 1424.26706,262.889068 1425.0008,262.889068 C1425.73476,262.889068 1426.33174,262.302051 1426.33174,261.580834 C1426.33174,261.058185 1426.01812,260.606012 1425.56618,260.396643 L1425.56591,261.580834 C1425.56591,261.887674 1425.31296,262.1363 1425.0008,262.1363 C1424.68863,262.1363 1424.43569,261.887674 1424.43569,261.580834 L1424.43569,256.030712 C1422.9898,255.768767 1421.89111,254.520527 1421.89111,253.024657 C1421.89111,252.666801 1421.95399,252.323117 1422.06946,252.003718 L1419.25469,250.40621 C1418.94465,250.730892 1418.5481,250.965239 1418.09945,251.083414 C1417.89041,251.138756 1417.67488,251.166844 1417.45839,251.166956 C1417.03184,251.166956 1416.61095,251.056974 1416.23165,250.841898 C1415.66224,250.518839 1415.25514,249.997145 1415.08493,249.372801 C1414.91471,248.748679 1415.00219,248.096562 1415.33086,247.537097 C1416.00945,246.381727 1417.51761,245.98468 1418.69304,246.651684 C1418.87756,246.756416 1419.04754,246.884566 1419.19811,247.031529 L1424.14138,244.22563 C1424.67145,243.92479 1425.33014,243.92479 1425.85999,244.22563 Z M1425.0008,251.078971 C1423.90923,251.078971 1423.02133,251.951719 1423.02133,253.024657 C1423.02133,254.097595 1423.90923,254.970344 1425.0008,254.970344 C1426.09236,254.970344 1426.98026,254.097595 1426.98026,253.024657 C1426.98026,251.951941 1426.09236,251.078971 1425.0008,251.078971 Z M1425.0008,252.266335 C1425.38846,252.266335 1425.70379,252.576285 1425.70379,252.957335 C1425.70379,253.338384 1425.38846,253.648334 1425.0008,253.648334 C1424.61313,253.648334 1424.2978,253.338384 1424.2978,252.957335 C1424.2978,252.576285 1424.61313,252.266335 1425.0008,252.266335 Z" id="icon-大模型1"></path>
        </g>
    </g>
</svg>