<?xml version="1.0" encoding="UTF-8"?>
<svg width="20px" height="20px" viewBox="0 0 20 20" version="1.1" xmlns="http://www.w3.org/2000/svg" xmlns:xlink="http://www.w3.org/1999/xlink">
    <!-- Generator: Sketch 59 (86127) - https://sketch.com -->
    <title>icon-大模型3</title>
    <desc>Created with Sketch.</desc>
    <g id="页面-2" stroke="none" stroke-width="1" fill="none" fill-rule="evenodd">
        <g id="我的AI-部署-新增" transform="translate(-1543.000000, -244.000000)" fill="#1D64F3" fill-rule="nonzero" stroke="#1D64F3" stroke-width="0.4">
            <path d="M1559,245 C1560.65685,245 1562,246.343146 1562,248 L1562,260 C1562,261.656854 1560.65685,263 1559,263 L1547,263 C1545.34315,263 1544,261.656854 1544,260 L1544,248 C1544,246.343146 1545.34315,245 1547,245 L1559,245 Z M1559,246.2 L1547,246.2 C1546.00589,246.2 1545.2,247.005887 1545.2,248 L1545.2,260 C1545.2,260.994113 1546.00589,261.8 1547,261.8 L1559,261.8 C1559.99411,261.8 1560.8,260.994113 1560.8,260 L1560.8,248 C1560.8,247.005887 1559.99411,246.2 1559,246.2 Z M1550.6,251.00004 C1550.82706,251.00004 1551.03466,251.128211 1551.1364,251.3312 L1551.1364,251.3312 L1553.5364,256.1312 C1553.63442,256.323079 1553.62203,256.552785 1553.50393,256.733005 C1553.38584,256.913226 1553.18018,257.016287 1552.96512,257.003014 C1552.75007,256.989742 1552.55864,256.862174 1552.4636,256.6688 L1552.4636,256.6688 L1552.0292,255.8 L1549.1708,255.8 L1548.7364,256.6688 C1548.64136,256.862174 1548.44993,256.989742 1548.23488,257.003014 C1548.01982,257.016287 1547.81416,256.913226 1547.69607,256.733005 C1547.57797,256.552785 1547.56558,256.323079 1547.6636,256.1312 L1547.6636,256.1312 L1550.0636,251.3312 C1550.16534,251.128211 1550.37294,251.00004 1550.6,251.00004 Z M1556.6,251 C1556.75913,251 1556.91174,251.063214 1557.02426,251.175736 C1557.13679,251.288258 1557.2,251.44087 1557.2,251.6 L1557.2,256.4 C1557.2,256.731371 1556.93137,257 1556.6,257 C1556.26863,257 1556,256.731371 1556,256.4 L1556,251.6 C1556,251.44087 1556.06321,251.288258 1556.17574,251.175736 C1556.28826,251.063214 1556.44087,251 1556.6,251 Z" id="icon-大模型3"></path>
        </g>
    </g>
</svg>