<?xml version="1.0" encoding="UTF-8"?>
<svg width="16px" height="16px" viewBox="0 0 16 16" version="1.1" xmlns="http://www.w3.org/2000/svg" xmlns:xlink="http://www.w3.org/1999/xlink">
    <!-- Generator: Sketch 59 (86127) - https://sketch.com -->
    <title>icon-链接</title>
    <desc>Created with Sketch.</desc>
    <g id="页面-1" stroke="none" stroke-width="1" fill="none" fill-rule="evenodd">
        <g id="创建新的AI-提示词工程" transform="translate(-296.000000, -560.000000)" fill="#1D64F3" fill-rule="nonzero">
            <path d="M300.486802,565.96993 C300.733771,565.951692 300.976692,566.036804 301.158882,566.202975 C301.347146,566.377251 301.446338,566.628534 301.426095,566.88387 C301.405851,567.141232 301.272245,567.374277 301.05969,567.518156 C300.217565,568.371302 299.355197,569.206209 298.513073,570.067461 C298.021159,570.499099 297.729654,571.113121 297.705362,571.767672 C297.68107,572.422223 297.92804,573.05651 298.387564,573.522599 C299.326857,574.446671 300.830939,574.446671 301.768208,573.522599 C302.638673,572.677559 303.444359,571.808202 304.351262,570.955056 C304.549647,570.7058 304.871517,570.592317 305.175168,570.667297 C305.484891,570.74025 305.725787,570.983427 305.794615,571.293477 C305.837126,571.57921 305.758177,571.866969 305.578011,572.091908 C304.63467,573.080827 303.693353,574.077853 302.669038,574.985713 C301.515166,576.059744 299.814722,576.306974 298.401734,575.601761 C297.179035,575.042454 296.306545,573.917761 296.065649,572.592447 C295.826777,571.267133 296.247839,569.907369 297.197254,568.9529 C298.041402,568.053145 298.946281,567.202026 299.853184,566.294166 C300.011083,566.103677 300.239833,565.986142 300.486802,565.96993 Z M305.993,564.73986 C306.233896,564.450075 306.638764,564.356857 306.980877,564.512895 C307.333111,564.67096 307.547691,565.035726 307.515302,565.420756 C307.452547,565.590979 307.363477,565.751071 307.252138,565.892924 C305.523354,567.645824 303.786472,569.394671 302.041493,571.135412 C301.879546,571.309689 301.65282,571.408986 301.415973,571.408986 C301.179126,571.408986 300.9524,571.309689 300.790453,571.135412 C300.620408,570.973294 300.527289,570.744303 300.535386,570.509232 C300.543484,570.274161 300.652798,570.053275 300.834988,569.903316 L300.834988,569.903316 Z M307.891712,560.00147 L308.112481,560.014123 C309.665148,560.052626 311.047771,561.017228 311.618634,562.46413 C312.339298,563.986012 312.019453,565.79768 310.821045,566.981141 C309.914142,567.943716 309.009263,568.794835 308.10236,569.702695 C307.725833,570.07354 307.120556,570.07354 306.744029,569.702695 C306.428233,569.319692 306.476817,568.754305 306.853343,568.432096 L306.853343,568.432096 L309.50725,565.773362 C310.122648,565.175552 310.363545,564.289983 310.136819,563.461155 C309.910093,562.634354 309.254208,561.993988 308.420181,561.791341 C307.699517,561.568428 306.914074,561.748785 306.363454,562.263509 C305.456551,563.098416 304.551672,564.00425 303.644769,564.912111 C303.438286,565.112732 303.162976,565.228241 302.87552,565.238373 C302.563772,565.222161 302.288462,565.02762 302.171051,564.737834 C302.053437,564.44856 302.112518,564.11736 302.322876,563.886715 C303.337069,562.834975 304.361384,561.791341 305.448453,560.812554 C306.203531,560.21677 307.15497,559.931037 308.112481,560.014123 Z" id="icon-链接"></path>
        </g>
    </g>
</svg>