<?xml version="1.0" encoding="UTF-8"?>
<svg width="14px" height="12px" viewBox="0 0 14 12" version="1.1" xmlns="http://www.w3.org/2000/svg" xmlns:xlink="http://www.w3.org/1999/xlink">
    <!-- Generator: Sketch 59 (86127) - https://sketch.com -->
    <title>icon-退出登录-点击</title>
    <desc>Created with Sketch.</desc>
    <g id="通用功能" stroke="none" stroke-width="1" fill="none" fill-rule="evenodd">
        <g id="退出登录提示" transform="translate(-1811.000000, -167.000000)" fill="#999999" fill-rule="nonzero">
            <path d="M1816.69643,177.973437 C1816.69048,178.007812 1816.69643,178.05 1816.71429,178.1 C1816.71429,178.125 1816.71726,178.1875 1816.72321,178.2875 C1816.72917,178.3875 1816.73065,178.470313 1816.72768,178.535937 C1816.7247,178.601562 1816.71577,178.675 1816.70089,178.75625 C1816.68601,178.8375 1816.65625,178.898437 1816.61161,178.939063 C1816.56696,178.979688 1816.50595,179 1816.42857,179 L1813.57143,179 C1812.8631,179 1812.25744,178.735938 1811.75446,178.207812 C1811.25149,177.679687 1811,177.04375 1811,176.3 L1811,169.7 C1811,168.95625 1811.25149,168.320312 1811.75446,167.792188 C1812.25744,167.264062 1812.8631,167 1813.57143,167 L1816.42857,167 C1816.50595,167 1816.57292,167.029687 1816.62946,167.089063 C1816.68601,167.148438 1816.71429,167.21875 1816.71429,167.3 C1816.71429,167.325 1816.71726,167.3875 1816.72321,167.4875 C1816.72917,167.5875 1816.73065,167.670312 1816.72768,167.735938 C1816.7247,167.801562 1816.71577,167.875 1816.70089,167.95625 C1816.68601,168.0375 1816.65625,168.098437 1816.61161,168.139062 C1816.56696,168.179688 1816.50595,168.2 1816.42857,168.2 L1813.57143,168.2 C1813.17857,168.2 1812.84226,168.346875 1812.5625,168.640625 C1812.28274,168.934375 1812.14286,169.2875 1812.14286,169.7 L1812.14286,176.3 C1812.14286,176.7125 1812.28274,177.065625 1812.5625,177.359375 C1812.84226,177.653125 1813.17857,177.8 1813.57143,177.8 L1816.14286,177.8 L1816.24107,177.8 L1816.35714,177.8 C1816.35714,177.8 1816.39137,177.803125 1816.45982,177.809375 C1816.52827,177.815625 1816.5625,177.825 1816.5625,177.8375 C1816.5625,177.85 1816.58631,177.867187 1816.63393,177.889062 C1816.68155,177.910938 1816.70238,177.939063 1816.69643,177.973437 Z M1824.83036,172.578125 C1824.94345,172.696875 1825,172.8375 1825,173 C1825,173.1625 1824.94345,173.303125 1824.83036,173.421875 L1819.97321,178.521875 C1819.86012,178.640625 1819.72619,178.7 1819.57143,178.7 C1819.41667,178.7 1819.28274,178.640625 1819.16964,178.521875 C1819.05655,178.403125 1819,178.2625 1819,178.1 L1819,175.4 L1815,175.4 C1814.84524,175.4 1814.71131,175.340625 1814.59821,175.221875 C1814.48512,175.103125 1814.42857,174.9625 1814.42857,174.8 L1814.42857,171.2 C1814.42857,171.0375 1814.48512,170.896875 1814.59821,170.778125 C1814.71131,170.659375 1814.84524,170.6 1815,170.6 L1819,170.6 L1819,167.9 C1819,167.7375 1819.05655,167.596875 1819.16964,167.478125 C1819.28274,167.359375 1819.41667,167.3 1819.57143,167.3 C1819.72619,167.3 1819.86012,167.359375 1819.97321,167.478125 L1824.83036,172.578125 Z" id="icon-退出登录-点击"></path>
        </g>
    </g>
</svg>