<?xml version="1.0" encoding="UTF-8"?>
<svg width="10px" height="12px" viewBox="0 0 10 12" version="1.1" xmlns="http://www.w3.org/2000/svg" xmlns:xlink="http://www.w3.org/1999/xlink">
    <!-- Generator: Sketch 59 (86127) - https://sketch.com -->
    <title>icon-文本生成型</title>
    <desc>Created with Sketch.</desc>
    <g id="页面-2" stroke="none" stroke-width="1" fill="none" fill-rule="evenodd">
        <g id="我的大模型" transform="translate(-1103.000000, -498.000000)" fill="#98A2B3">
            <path d="M1108.02626,498.000611 C1108.30058,498.013353 1108.54182,498.250089 1108.55492,498.519422 C1108.55556,498.532432 1108.55556,498.539605 1108.55556,498.553953 L1108.55589,501.098701 C1108.55658,501.187622 1108.55867,501.272437 1108.56498,501.348131 C1108.57534,501.472822 1108.59983,501.619942 1108.67667,501.768 C1108.78319,501.973266 1108.95317,502.140153 1109.16223,502.244738 C1109.31302,502.320175 1109.46288,502.344208 1109.58988,502.354397 C1109.70551,502.36368 1109.84207,502.363658 1109.98227,502.363648 L1112.45388,502.363724 L1112.45388,502.363724 L1112.47089,502.364258 C1112.74522,502.37712 1112.98644,502.613989 1112.99933,502.883357 C1113,502.896349 1113,502.900582 1113,502.909058 L1113,502.909058 L1113,506.858902 C1113,507.297971 1113,507.660349 1112.97544,507.955538 C1112.94989,508.262138 1112.89522,508.543964 1112.75778,508.808728 C1112.54478,509.219237 1112.20479,509.553055 1111.78664,509.762182 C1111.51701,509.897128 1111.22996,509.9508 1110.91768,509.975891 C1110.61702,510 1110.24793,510 1109.80073,510 L1109.80073,510 L1106.19927,510 C1105.75207,510 1105.38298,510 1105.08232,509.975891 C1104.77004,509.9508 1104.48299,509.897128 1104.21336,509.762182 C1103.79522,509.553055 1103.45526,509.219237 1103.24221,508.808728 C1103.10482,508.543964 1103.05007,508.262138 1103.02456,507.955538 C1103,507.660349 1103,507.29796 1103,506.858902 L1103.0002,500.886784 C1103.00098,500.559766 1103.00491,500.280613 1103.02456,500.044462 C1103.05007,499.737862 1103.10482,499.456026 1103.24221,499.191295 C1103.45526,498.780764 1103.79522,498.446984 1104.21336,498.237806 C1104.48299,498.10292 1104.77004,498.049158 1105.08232,498.024107 C1105.38298,498 1105.75207,498 1106.19926,498 Z M1109.11111,506.727273 L1105.77778,506.727273 C1105.47096,506.727273 1105.22222,506.971484 1105.22222,507.272728 C1105.22222,507.573971 1105.47096,507.818182 1105.77778,507.818182 L1109.11111,507.818182 C1109.41793,507.818182 1109.66667,507.573971 1109.66667,507.272728 C1109.66667,506.971484 1109.41793,506.727273 1109.11111,506.727273 Z M1110.22222,504.545455 L1105.77778,504.545455 C1105.47096,504.545455 1105.22222,504.789666 1105.22222,505.090909 C1105.22222,505.392153 1105.47096,505.636364 1105.77778,505.636364 L1110.22222,505.636364 C1110.52904,505.636364 1110.77778,505.392153 1110.77778,505.090909 C1110.77778,504.789666 1110.52904,504.545455 1110.22222,504.545455 Z M1109.94222,498.706755 L1110.00937,498.712648 C1110.08557,498.730637 1110.13871,498.782858 1110.24499,498.887302 L1110.24499,498.887302 L1112.09628,500.704931 C1112.20264,500.809266 1112.25583,500.861444 1112.27416,500.936258 C1112.30002,501.041913 1112.24361,501.175713 1112.14924,501.232517 C1112.08243,501.272728 1112.00088,501.272728 1111.83776,501.272728 L1110.02663,501.272474 C1109.92516,501.271506 1109.86587,501.266749 1109.81833,501.242968 C1109.76607,501.216829 1109.72358,501.175102 1109.69694,501.123786 C1109.66667,501.065444 1109.66667,500.98908 1109.66667,500.836342 L1109.66699,499.054103 C1109.66831,498.949503 1109.67486,498.887754 1109.70763,498.835277 C1109.76548,498.742637 1109.90176,498.687251 1110.00937,498.712648 Z" id="icon-文本生成型"></path>
        </g>
    </g>
</svg>