<?xml version="1.0" encoding="UTF-8"?>
<svg width="12px" height="12px" viewBox="0 0 12 12" version="1.1" xmlns="http://www.w3.org/2000/svg" xmlns:xlink="http://www.w3.org/1999/xlink">
    <!-- Generator: Sketch 59 (86127) - https://sketch.com -->
    <title>icon-对话型</title>
    <desc>Created with Sketch.</desc>
    <g id="页面-2" stroke="none" stroke-width="1" fill="none" fill-rule="evenodd">
        <g id="我的大模型" transform="translate(-282.000000, -318.000000)" fill="#98A2B3">
            <path d="M285.600022,322.909091 C287.521665,322.909091 289.057174,324.508975 289.057174,326.454545 C289.057174,328.400073 287.521665,330 285.600022,330 C285.205005,330 284.824483,329.931818 284.469725,329.806036 C284.411085,329.7852 284.374714,329.772327 284.348037,329.763491 C284.343206,329.761855 284.339243,329.760655 284.336073,329.759564 L284.33312,329.759891 C284.3145,329.761964 284.289116,329.765455 284.242082,329.771891 L282.616318,329.994982 C282.440407,330.019091 282.263861,329.955273 282.143574,329.824036 C282.023287,329.692909 281.974465,329.510836 282.012839,329.336618 L282.344712,327.83028 C282.356243,327.777938 282.362415,327.749695 282.366378,327.728913 L282.366996,327.72564 C282.36601,327.722182 282.364761,327.717905 282.3632,327.712713 C282.354261,327.682964 282.341114,327.642415 282.319743,327.576687 C282.204828,327.223233 282.142865,326.845713 282.142865,326.454545 C282.142865,324.508975 283.678367,322.909091 285.600022,322.909091 Z M289.085739,318 C291.796471,318 294,320.194505 294,322.909091 C294,323.521015 293.887737,324.107956 293.682102,324.649593 C293.66777,324.687382 293.649748,324.725509 293.640302,324.764924 C293.642039,324.782924 293.64497,324.807491 293.650725,324.854258 L293.650725,324.854258 L293.871125,326.653113 C293.881331,326.736109 293.89284,326.830276 293.895554,326.912236 C293.898703,327.002935 293.894903,327.143716 293.827588,327.291447 C293.743554,327.475942 293.594267,327.622484 293.408827,327.702633 C293.260301,327.766822 293.120135,327.767378 293.029912,327.762218 C292.948483,327.757571 292.855002,327.743771 292.772705,327.731618 L292.772705,327.731618 L291.028543,327.474731 C290.997166,327.470105 290.9658,327.465175 290.934292,327.461498 C290.895261,327.474916 290.856718,327.489785 290.818088,327.504316 C290.544205,327.607396 290.258846,327.686705 289.964606,327.739811 C290.080886,327.329945 290.142946,326.898349 290.142946,326.454535 C290.142946,323.940371 288.151306,321.818182 285.592574,321.818182 C285.123587,321.818182 284.673644,321.889473 284.251528,322.021418 C284.669942,319.731731 286.677737,318 289.085739,318 Z" id="icon-对话型"></path>
        </g>
    </g>
</svg>