<?xml version="1.0" encoding="UTF-8"?>
<svg width="12px" height="11px" viewBox="0 0 12 11" version="1.1" xmlns="http://www.w3.org/2000/svg" xmlns:xlink="http://www.w3.org/1999/xlink">
    <!-- Generator: Sketch 59 (86127) - https://sketch.com -->
    <title>icon-图片生成</title>
    <desc>Created with Sketch.</desc>
    <g id="页面-2" stroke="none" stroke-width="1" fill="none" fill-rule="evenodd">
        <g id="我的大模型" transform="translate(-1512.000000, -319.000000)" fill="#98A2B3" fill-rule="nonzero">
            <path d="M1522.9625,319.1125 C1522.7875,319.0375 1522.6,319 1522.4125,319 L1513.5875,319 C1513.3875,319 1513.2,319.0375 1513.025,319.1 C1512.425,319.3375 1512,319.9 1512,320.575 L1512,328.4375 C1512,329.1125 1512.425,329.675 1513.0375,329.9 C1513.2125,329.9625 1513.4,330 1513.6,330 L1522.4125,330 C1523.2875,330 1524,329.2875 1524,328.4125 L1524,320.575 C1524,319.9 1523.575,319.3375 1522.9625,319.1125 Z M1516.8,322.5375 C1516.8,323.1875 1516.2625,323.7125 1515.6,323.7125 C1514.9375,323.7125 1514.4,323.1875 1514.4,322.5375 C1514.4,321.8875 1514.9375,321.3625 1515.6,321.3625 C1516.2625,321.3625 1516.8,321.8875 1516.8,322.5375 Z M1522.4125,329.2 L1513.5875,329.2 C1513.2125,329.2 1512.8875,328.9375 1512.8125,328.575 C1512.8,328.525 1512.8,328.475 1512.8,328.425 L1512.8,327.825 L1515.1625,325.825 L1516.0125,326.6375 C1516.45,327.0625 1517.15,327.0875 1517.625,326.7 L1521.6125,323.4 C1522.375,324.225 1522.9,324.775 1523.225,325.0625 L1523.225,328.4125 C1523.2,328.85 1522.85,329.2 1522.4125,329.2 Z" id="icon-图片生成"></path>
        </g>
    </g>
</svg>