<?xml version="1.0" encoding="UTF-8"?>
<svg width="14px" height="16px" viewBox="0 0 14 16" version="1.1" xmlns="http://www.w3.org/2000/svg" xmlns:xlink="http://www.w3.org/1999/xlink">
    <!-- Generator: Sketch 59 (86127) - https://sketch.com -->
    <title>icon-修改密码</title>
    <desc>Created with Sketch.</desc>
    <g id="通用功能" stroke="none" stroke-width="1" fill="none" fill-rule="evenodd">
        <g id="退出登录提示" transform="translate(-1811.000000, -118.000000)" fill="#999999" fill-rule="nonzero">
            <path d="M1822.59792,123.578085 C1822.21353,123.578085 1821.89782,123.288027 1821.83244,122.899734 C1821.51726,121.024715 1819.91849,119.593713 1818,119.593713 C1816.08151,119.593713 1814.48274,121.024893 1814.16755,122.899734 C1814.10236,123.287848 1813.78665,123.578085 1813.40208,123.578085 C1812.93052,123.578085 1812.551,123.148713 1812.62736,122.67201 C1813.05098,120.025764 1815.29895,118 1818,118 C1820.70105,118 1822.94885,120.025764 1823.37264,122.67201 C1823.449,123.148713 1823.06948,123.578085 1822.59792,123.578085 L1822.59792,123.578085 Z M1823.8761,124.333237 L1812.19868,124.333237 C1811.53658,124.333237 1811,124.883168 1811,125.56134 L1811,132.771896 C1811,133.450247 1811.53676,134 1812.19868,134 L1823.79783,134 C1824.45975,134 1824.99634,133.450425 1824.99669,132.772253 L1825,125.485075 C1825.00035,124.849054 1824.49706,124.333237 1823.8761,124.333237 Z M1818.77785,130.481615 C1818.77785,130.921703 1818.42972,131.27856 1818,131.27856 C1817.57045,131.27856 1817.22214,130.921882 1817.22214,130.481615 L1817.22214,128.887902 C1817.22214,128.447813 1817.57028,128.090956 1818,128.090956 C1818.42955,128.090956 1818.77785,128.447813 1818.77785,128.887902 L1818.77785,130.481615 Z" id="icon-修改密码"></path>
        </g>
    </g>
</svg>