<?xml version="1.0" encoding="UTF-8"?>
<svg width="32px" height="32px" viewBox="0 0 32 32" version="1.1" xmlns="http://www.w3.org/2000/svg" xmlns:xlink="http://www.w3.org/1999/xlink">
    <!-- Generator: Sketch 59 (86127) - https://sketch.com -->
    <title>切片</title>
    <desc>Created with Sketch.</desc>
    <g id="4月-企业端" stroke="none" stroke-width="1" fill="none" fill-rule="evenodd">
        <g id="场景设置-关联PPT-弹窗" transform="translate(-1317.000000, -390.000000)" fill-rule="nonzero">
            <g id="ppt" transform="translate(1317.000000, 390.000000)">
                <g id="u2809">
                    <path d="M16.7516135,0 L18.8034428,0 L18.8034428,3.33235047 C22.6712159,3.35481576 26.5427332,3.29116412 30.4105062,3.33235047 C30.8002189,3.28669847 31.1890642,3.42439516 31.4631989,3.7051267 C31.7373336,3.98585824 31.8657467,4.37786734 31.8108423,4.76638445 C31.874494,11.6819478 31.8108423,18.6012553 31.8482845,25.5205627 C31.8108423,26.2694056 31.9194245,27.0968769 31.5000725,27.7670912 C30.9721384,28.1415126 30.2869472,28.1078146 29.6654077,28.1415126 C26.048497,28.1227915 22.4315862,28.1415126 18.807187,28.1415126 L18.807187,31.8258192 L16.5606586,31.8258192 C11.0416872,30.8111372 5.51897146,29.8713395 0,28.8791227 L0,2.96916172 C5.5826231,1.98068921 11.1652462,0.973495647 16.7516135,0 Z" id="路径" fill="#D24625"></path>
                    <path d="M18.8034428,4.44438203 L30.7399971,4.44438203 L30.7399971,27.0257368 L18.8034428,27.0257368 L18.8034428,24.0640635 L27.4862751,24.0640635 L27.4862751,22.585099 L18.8034428,22.585099 L18.8034428,20.7129919 L27.4862751,20.7129919 L27.4862751,19.2527485 L18.807187,19.2527485 L18.807187,17.0773601 C20.241221,17.53041 21.8736983,17.5191774 23.1542195,16.6392871 C24.5395787,15.7968389 25.262212,14.1943153 25.3820268,12.595536 L20.6193866,12.595536 C20.6193866,10.9855239 20.6381077,9.37551191 20.5894329,7.76924409 C19.9941029,7.88531474 19.402517,8.012618 18.8109312,8.14366549 L18.8034428,4.44438203 Z" id="路径" fill="#FFFFFF"></path>
                    <path d="M21.3420199,6.98670336 C23.9284198,7.1791541 25.9685619,9.26420499 26.1046601,11.8541816 C24.5171134,11.8729027 22.9295666,11.8541816 21.3382757,11.8541816 C21.3420199,10.2254485 21.3420199,8.61169226 21.3420199,6.98670336 L21.3420199,6.98670336 Z" id="路径" fill="#D24625"></path>
                    <path d="M5.80353172,9.77988703 C7.76924409,9.8772366 10.14682,8.98611365 11.7942742,10.4912877 C13.3518672,12.4307905 12.9400036,15.9915381 10.6298236,17.1485002 C9.80984073,17.5790848 8.86629879,17.5229216 7.97517587,17.4892237 L7.97517587,21.8325119 L5.8222528,21.6490455 C5.76608958,17.6951554 5.75860115,13.7375212 5.80353172,9.77988703 L5.80353172,9.77988703 Z" id="路径" fill="#FFFFFF"></path>
                    <path d="M7.95271057,11.7830415 C8.66411123,11.7530878 9.54774574,11.6182961 10.0270051,12.3034873 C10.4222801,13.0613205 10.4402899,13.9604278 10.0756799,14.7334822 C9.66381636,15.482325 8.73150709,15.4186733 8.00887379,15.5085345 C7.93398952,14.2691996 7.94147792,13.0298648 7.95271057,11.7830415 Z" id="路径" fill="#D24625"></path>
                </g>
            </g>
        </g>
    </g>
</svg>