<?xml version="1.0" encoding="UTF-8"?>
<svg width="14px" height="14px" viewBox="0 0 14 14" version="1.1" xmlns="http://www.w3.org/2000/svg" xmlns:xlink="http://www.w3.org/1999/xlink">
    <!-- Generator: Sketch 59 (86127) - https://sketch.com -->
    <title>icon-账号管理</title>
    <desc>Created with Sketch.</desc>
    <g id="通用功能" stroke="none" stroke-width="1" fill="none" fill-rule="evenodd">
        <g id="退出登录提示" transform="translate(-1811.000000, -71.000000)" fill="#999999" fill-rule="nonzero">
            <path d="M1819.64974,79.6497396 C1820.10547,79.1940104 1820.33333,78.6440972 1820.33333,78 C1820.33333,77.3559028 1820.10547,76.8059896 1819.64974,76.3502604 C1819.19401,75.8945312 1818.6441,75.6666667 1818,75.6666667 C1817.3559,75.6666667 1816.80599,75.8945312 1816.35026,76.3502604 C1815.89453,76.8059896 1815.66667,77.3559028 1815.66667,78 C1815.66667,78.6440972 1815.89453,79.1940104 1816.35026,79.6497396 C1816.80599,80.1054688 1817.3559,80.3333333 1818,80.3333333 C1818.6441,80.3333333 1819.19401,80.1054688 1819.64974,79.6497396 Z M1824.92708,76.7923177 C1824.97569,76.8561198 1825,76.9275174 1825,77.0065104 L1825,79.0299479 C1825,79.1028646 1824.97569,79.1727431 1824.92708,79.2395833 C1824.87847,79.3064236 1824.81771,79.3459201 1824.74479,79.3580729 L1823.05859,79.6132812 C1822.94314,79.9414062 1822.82465,80.2178819 1822.70312,80.4427083 C1822.9158,80.7465278 1823.24089,81.1657986 1823.67839,81.7005208 C1823.73915,81.7734375 1823.76953,81.8493924 1823.76953,81.9283854 C1823.76953,82.0073785 1823.74219,82.0772569 1823.6875,82.1380208 C1823.52344,82.3628472 1823.22266,82.6909722 1822.78516,83.1223958 C1822.34766,83.5538194 1822.06207,83.7695312 1821.92839,83.7695312 C1821.85547,83.7695312 1821.77648,83.7421875 1821.69141,83.6875 L1820.43359,82.703125 C1820.16623,82.8428819 1819.88976,82.9583333 1819.60417,83.0494792 C1819.50694,83.8758681 1819.41884,84.4409722 1819.33984,84.7447917 C1819.29731,84.9149306 1819.18793,85 1819.01172,85 L1816.98828,85 C1816.90321,85 1816.82878,84.9741753 1816.76497,84.922526 C1816.70117,84.8708767 1816.66623,84.8055556 1816.66016,84.7265625 L1816.40495,83.0494792 C1816.1072,82.9522569 1815.83377,82.8398438 1815.58464,82.7122396 L1814.29948,83.6875 C1814.23872,83.7421875 1814.16276,83.7695312 1814.07161,83.7695312 C1813.98655,83.7695312 1813.91059,83.7361111 1813.84375,83.6692708 C1813.07812,82.9765625 1812.57682,82.4661458 1812.33984,82.1380208 C1812.29731,82.0772569 1812.27604,82.0073785 1812.27604,81.9283854 C1812.27604,81.8554688 1812.30035,81.7855903 1812.34896,81.71875 C1812.4401,81.5911458 1812.59505,81.3891059 1812.8138,81.1126302 C1813.03255,80.8361545 1813.19661,80.6219618 1813.30599,80.4700521 C1813.14193,80.1662326 1813.01736,79.8654514 1812.93229,79.5677083 L1811.26432,79.3216146 C1811.18533,79.3094618 1811.12153,79.2714844 1811.07292,79.2076823 C1811.02431,79.1438802 1811,79.0724826 1811,78.9934896 L1811,76.9700521 C1811,76.8971354 1811.02431,76.8272569 1811.07292,76.7604167 C1811.12153,76.6935764 1811.17925,76.6540799 1811.24609,76.6419271 L1812.94141,76.3867188 C1813.02648,76.1072049 1813.14497,75.827691 1813.29688,75.5481771 C1813.05382,75.2018229 1812.72873,74.7825521 1812.32161,74.2903646 C1812.26085,74.2174479 1812.23047,74.1445312 1812.23047,74.0716146 C1812.23047,74.0108507 1812.25781,73.9409722 1812.3125,73.8619792 C1812.47049,73.6432292 1812.76975,73.3166233 1813.21029,72.8821615 C1813.65082,72.4476997 1813.93793,72.2304688 1814.07161,72.2304688 C1814.15061,72.2304688 1814.2296,72.2608507 1814.30859,72.3216146 L1815.56641,73.296875 C1815.83377,73.1571181 1816.11024,73.0416667 1816.39583,72.9505208 C1816.49306,72.1241319 1816.58116,71.5590278 1816.66016,71.2552083 C1816.70269,71.0850694 1816.81207,71 1816.98828,71 L1819.01172,71 C1819.09679,71 1819.17122,71.0258247 1819.23503,71.077474 C1819.29883,71.1291233 1819.33377,71.1944444 1819.33984,71.2734375 L1819.59505,72.9505208 C1819.8928,73.0477431 1820.16623,73.1601562 1820.41536,73.2877604 L1821.70964,72.3125 C1821.76432,72.2578125 1821.83724,72.2304688 1821.92839,72.2304688 C1822.00738,72.2304688 1822.08333,72.2608507 1822.15625,72.3216146 C1822.9401,73.0447049 1823.44141,73.5611979 1823.66016,73.8710938 C1823.70269,73.9197049 1823.72396,73.9865451 1823.72396,74.0716146 C1823.72396,74.1445312 1823.69965,74.2144097 1823.65104,74.28125 C1823.5599,74.4088542 1823.40495,74.6108941 1823.1862,74.8873698 C1822.96745,75.1638455 1822.80339,75.3780382 1822.69401,75.5299479 C1822.852,75.8337674 1822.97656,76.1315104 1823.06771,76.4231771 L1824.73568,76.6783854 C1824.81467,76.6905382 1824.87847,76.7285156 1824.92708,76.7923177 Z" id="icon-账号管理"></path>
        </g>
    </g>
</svg>