<?xml version="1.0" encoding="UTF-8"?>
<svg width="14px" height="13px" viewBox="0 0 14 13" version="1.1" xmlns="http://www.w3.org/2000/svg" xmlns:xlink="http://www.w3.org/1999/xlink">
    <!-- Generator: Sketch 59 (86127) - https://sketch.com -->
    <title>icon-演示</title>
    <desc>Created with Sketch.</desc>
    <g id="页面-2" stroke="none" stroke-width="1" fill="none" fill-rule="evenodd">
        <g id="我的AI-管理" transform="translate(-484.000000, -521.000000)" fill="#1D64F3" fill-rule="nonzero">
            <path d="M497.436872,521 C497.748156,521 498,521.261887 498,521.585586 C498,521.909284 497.748156,522.171171 497.436872,522.171171 L497.436872,522.171171 L497.023911,522.171171 L497.023911,531.182683 C497.023911,531.506381 496.772067,531.768268 496.460782,531.768268 L496.460782,531.768268 L494.769832,531.768268 L495.939888,533.001251 C496.157318,533.230606 496.155754,533.601476 495.933631,533.829204 C495.824134,533.941441 495.680223,533.998373 495.537877,533.998373 C495.392402,533.998373 495.246927,533.939815 495.13743,533.824324 L495.13743,533.824324 L493.18838,531.769895 L488.806927,531.769895 L486.857877,533.825951 C486.74838,533.941441 486.602905,534 486.45743,534 C486.31352,534 486.171173,533.943068 486.061676,533.830831 C485.839553,533.60473 485.836425,533.233859 486.055419,533.002878 L486.055419,533.002878 L487.225475,531.769895 L485.534525,531.769895 C485.22324,531.769895 484.971397,531.508008 484.971397,531.184309 L484.971397,531.184309 L484.971397,522.171171 L484.563128,522.171171 C484.251844,522.171171 484,521.909284 484,521.585586 C484,521.261887 484.251844,521 484.563128,521 L484.563128,521 Z M495.897654,522.171171 L486.097654,522.171171 L486.097654,530.598724 L495.897654,530.598724 L495.897654,522.171171 Z M489.736089,523.875876 C489.784581,523.875876 489.831508,523.890516 489.872179,523.918168 L489.872179,523.918168 L493.336983,526.245871 C493.454302,526.323949 493.487151,526.484985 493.412067,526.605355 C493.391732,526.636261 493.366704,526.663914 493.336983,526.683433 L493.336983,526.683433 L489.872179,529.011136 C489.75486,529.089214 489.6,529.055055 489.52648,528.933058 C489.499888,528.890766 489.48581,528.841967 489.48581,528.791542 L489.48581,528.791542 L489.48581,524.136136 C489.48581,523.992993 489.598436,523.875876 489.736089,523.875876 Z" id="icon-演示"></path>
        </g>
    </g>
</svg>