<?xml version="1.0" encoding="UTF-8"?>
<svg width="29px" height="32px" viewBox="0 0 29 32" version="1.1" xmlns="http://www.w3.org/2000/svg" xmlns:xlink="http://www.w3.org/1999/xlink">
    <!-- Generator: Sketch 59 (86127) - https://sketch.com -->
    <title>icon-上传音频</title>
    <desc>Created with Sketch.</desc>
    <g id="4月-企业端" stroke="none" stroke-width="1" fill="none" fill-rule="evenodd">
        <g id="场景设置-上传音频" transform="translate(-1857.000000, -147.000000)" fill-rule="nonzero">
            <g id="icon-上传音频" transform="translate(1857.000000, 147.000000)">
                <path d="M21.9431395,0 C25.5169794,0 28.4444444,2.78153442 28.4444444,6.25352065 L28.4444444,18.0109286 C28.4444444,18.8280557 27.7807016,19.4904681 26.9619334,19.4904681 C26.1431653,19.4904681 25.4794225,18.8280557 25.4794224,18.0109286 L25.4794224,6.25352065 C25.4794224,4.45045507 23.9099375,2.95907917 21.9411628,2.95907917 L6.50130492,2.95907917 C4.53450699,2.95907917 2.96699869,4.45045507 2.96699869,6.25352065 L2.96699869,25.3514176 C2.96699869,27.1544832 4.53450699,28.6458591 6.50130492,28.6458591 L15.4260212,28.6458591 C15.9556713,28.6458591 16.4450883,28.9278577 16.7099134,29.3856289 C16.9747385,29.8434 16.9747385,30.4073974 16.7099134,30.8651685 C16.4450883,31.3229397 15.9556713,31.6049383 15.4260212,31.6049383 L6.49932824,31.6049383 C2.92548838,31.6049383 0,28.8234039 0,25.3514176 L0,6.25352065 C0,2.78153442 2.92548838,0 6.49932824,0 L21.9431395,0 Z" id="路径" fill="#171A1D"></path>
                <path d="M13.4593717,16.0515764 L13.4593717,8.69135802 L19.4257426,8.69135802 L19.4257426,11.0763425 L15.8463111,11.0763425 L15.8463111,19.4276978 C15.8448985,20.9857224 14.8353055,22.3636745 13.3501548,22.8345992 C11.8650041,23.3055239 10.2458527,22.7611173 9.34690287,21.4885876 C8.44795308,20.2160578 8.47594664,18.508063 9.41611521,17.2656759 C10.3562838,16.0232888 11.9924061,15.5322353 13.4613267,16.0515764 L13.4593717,16.0515764 Z" id="路径" fill="#171A1D"></path>
                <path d="M24.0475885,19.4221096 L27.9745045,23.2826477 C28.6010911,23.8989714 28.6010911,24.8982296 27.9745045,25.5145534 C27.3479179,26.1308771 26.3320203,26.1308771 25.7054336,25.5145534 L24.516474,24.3450678 L24.516474,30.0277798 C24.516474,30.8988204 23.798598,31.6049383 22.913053,31.6049383 C22.0275081,31.6049383 21.3096321,30.8988204 21.3096321,30.0277798 L21.3096321,24.3450678 L20.1206724,25.5145534 C19.5592428,26.0664168 18.6718204,26.1312048 18.0337133,25.666916 L17.8536948,25.5145534 C17.2257231,24.8968673 17.2257231,23.8982748 17.8536948,23.2826477 L21.7785176,19.4221096 C22.0518088,19.1520146 22.4155918,18.9888349 22.8021114,18.962963 L23.0260879,18.962963 C23.4118712,18.9893232 23.7748288,19.1524663 24.0475885,19.4221096 L24.0475885,19.4221096 Z" id="路径" fill="#0052D9"></path>
            </g>
        </g>
    </g>
</svg>